<?xml version="1.0" standalone="no"?>
<!DOCTYPE svg PUBLIC "-//W3C//DTD SVG 1.1//EN" "http://www.w3.org/Graphics/SVG/1.1/DTD/svg11.dtd" >
<!--
2013-9-30: Created.
-->
<svg>
<metadata>
Created by iconfont
</metadata>
<defs>

<font id="iconfont" horiz-adv-x="1024" >
  <font-face
    font-family="iconfont"
    font-weight="500"
    font-stretch="normal"
    units-per-em="1024"
    ascent="896"
    descent="-128"
  />
    <missing-glyph />
    
    <glyph glyph-name="x" unicode="x" horiz-adv-x="1001"
d="M281 543q-27 -1 -53 -1h-83q-18 0 -36.5 -6t-32.5 -18.5t-23 -32t-9 -45.5v-76h912v41q0 16 -0.5 30t-0.5 18q0 13 -5 29t-17 29.5t-31.5 22.5t-49.5 9h-133v-97h-438v97zM955 310v-52q0 -23 0.5 -52t0.5 -58t-10.5 -47.5t-26 -30t-33 -16t-31.5 -4.5q-14 -1 -29.5 -0.5
t-29.5 0.5h-32l-45 128h-439l-44 -128h-29h-34q-20 0 -45 1q-25 0 -41 9.5t-25.5 23t-13.5 29.5t-4 30v167h911zM163 247q-12 0 -21 -8.5t-9 -21.5t9 -21.5t21 -8.5q13 0 22 8.5t9 21.5t-9 21.5t-22 8.5zM316 123q-8 -26 -14 -48q-5 -19 -10.5 -37t-7.5 -25t-3 -15t1 -14.5
t9.5 -10.5t21.5 -4h37h67h81h80h64h36q23 0 34 12t2 38q-5 13 -9.5 30.5t-9.5 34.5q-5 19 -11 39h-368zM336 498v228q0 11 2.5 23t10 21.5t20.5 15.5t34 6h188q31 0 51.5 -14.5t20.5 -52.5v-227h-327z" />
    

    
    <glyph glyph-name="collect" unicode="&#58891;" d="M772.7740227500001 262.55245636458335q16.79681234375-78.05577671875001 29.6414346875-141.2908370625 5.9282869375-26.67729121875 10.868526375-53.35458146875t9.38645415625-48.414342999999995 7.4103581875-37.051792875 3.95219096875-19.266932062499997q2.96414346875-19.7609558125-8.89243040625-26.183266500000002t-26.67729121875-6.4223106875000004q-4.9402394375 0-14.32669359375 3.45816721875t-14.32669359375 5.4342631875l-257.88047790625 150.1832665q-70.15139478125-41.498007593749996-127.45816721874999-74.10358575-24.701195249999998-13.832668875-48.90836675-27.66533871875t-43.9681273125-25.689242750000002-34.08764940625-19.7609558125-19.266932062499997-9.88047790625q-9.88047790625-4.9402394375-20.25498053125-3.45816721875t-18.7729083125 7.4103581875-12.350597624999999 14.32669359375-1.97609596875 17.2908370625q0.9880475 3.95219096875 4.9402394375 19.266932062499997t8.89243040625 36.557769125 11.362550125 46.932270781250004 13.338645125 52.36653396875q14.82071734375 61.258964375 33.59362565625 138.32669359375-58.29482090625 50.390438-104.7330679375 89.91235059374999-19.7609558125 16.79681234375-39.02788884375 33.099601906249994t-34.581673156250005 29.6414346875-25.195219 21.73705178125-10.868526375 9.38645415625q-11.856573875 10.868526375-20.25498053125 24.207171499999998t-6.4223106875000004 27.17131496875 10.868526375 21.73705178125 19.7609558125 9.88047790625l305.3067724375 27.66533871875 113.62549834375 264.79681234375q5.9282869375 15.808764843750001 16.79681234375 27.17131496875t29.6414346875 11.362550125q9.88047790625 0 17.2908370625-4.44621471875t12.350597624999999-10.37450165625 8.39840665625-11.856573875 5.4342631875-9.88047790625l110.661354875-264.79681234375 305.3067724375-28.65338621875q19.7609558125-4.9402394375 27.66533871875-11.856573875t7.90438290625-21.73705178125q0-13.832668875-8.39840665625-24.207171499999998t-21.243028031250002-25.195219z"  horiz-adv-x="1024" />

    
    <glyph glyph-name="delete" unicode="&#58880;" d="M327.287 81.232c17.004 0 30.762 13.759 30.762 30.762v338.38c0 17.004-13.758 30.762-30.762 30.762s-30.762-13.761-30.762-30.762v-338.382c0-17.004 13.759-30.761 30.762-30.761zM511.858 81.232c17.005 0 30.762 13.759 30.762 30.762v338.38c0 17.004-13.759 30.762-30.762 30.762s-30.762-13.761-30.762-30.762v-338.382c-0.001-17.004 13.757-30.761 30.762-30.761zM696.431 81.232c17.004 0 30.762 13.759 30.762 30.762v338.38c0 17.004-13.759 30.762-30.762 30.762s-30.762-13.761-30.762-30.762v-338.382c0-17.004 13.758-30.761 30.762-30.761zM850.239 788.756h-127.405c-13.759 52.932-61.523 92.285-118.692 92.285h-184.572c-57.168 0-104.933-39.353-118.692-92.285h-127.403c-67.863 0-123.049-55.217-123.049-123.049v-30.763h30.762v-30.762h61.523v-584.478c0-67.832 55.185-123.049 123.049-123.049h492.19c67.865 0 123.049 55.216 123.049 123.049v584.479h61.523v30.762h30.762v30.763c0 67.831-55.183 123.046-123.049 123.046zM419.571 819.518h184.572c22.65 0 42.298-12.467 52.963-30.762h-290.496c10.666 18.295 30.311 30.762 52.962 30.762zM819.477 19.707c0-33.947-27.607-61.523-61.523-61.523h-492.19c-33.917 0-65.789 27.578-65.789 61.523l4.265 584.478h615.239v-584.478zM111.953 665.708c0 33.947 27.609 61.523 61.523 61.523h676.764c33.919 0 61.523-27.578 61.523-61.523h-799.813z"  horiz-adv-x="1024" />

    
    <glyph glyph-name="yulan" unicode="&#58906;" d="M261.2245 7.4286h-104.48979591836734c-34.6279 0-62.6939 28.066-62.6939 62.6939v83.59183673469387c0 23.0713-18.7246 41.7959-41.7959 41.7959s-41.7959-18.7246-41.7959-41.7959v-104.48979591836734c0-69.2349 56.1528-125.3878 125.3878-125.3878h125.38775510204081c23.0713 0 41.7959 18.7246 41.7959 41.7959S284.2958 7.4286 261.2245 7.4286zM888.1633 655.2653h-125.38775510204081c-23.0713 0-41.7959-18.7246-41.7959-41.7959s18.7246-41.7959 41.7959-41.7959h104.48979591836734c34.6279 0 62.6939-28.0869 62.6939-62.6939v-83.59183673469387c0-23.0713 18.7246-41.7959 41.7959-41.7959s41.7959 18.7246 41.7959 41.7959v104.48979591836734C1013.551 599.1125 957.3982 655.2653 888.1633 655.2653zM52.2449 383.5918c23.0713 0 41.7959 18.7246 41.7959 41.7959v83.59183673469387c0 34.607 28.066 62.6939 62.6939 62.6939h104.48979591836734c23.0713 0 41.7959 18.7246 41.7959 41.7959s-18.7246 41.7959-41.7959 41.7959h-125.38775510204081c-69.2349 0-125.3878-56.1528-125.3878-125.3878v-104.48979591836734C10.449 402.3164 29.1736 383.5918 52.2449 383.5918zM971.7551 195.5102c-23.0713 0-41.7959-18.7246-41.7959-41.7959v-83.59183673469387c0-34.6279-28.066-62.6939-62.6939-62.6939h-104.48979591836734c-23.0713 0-41.7959-18.7246-41.7959-41.7959s18.7246-41.7959 41.7959-41.7959h125.38775510204081c69.2349 0 125.3878 56.1528 125.3878 125.3878v104.48979591836734C1013.551 176.7856 994.8264 195.5102 971.7551 195.5102zM201.9788 132.1058c6.0395-12.6224 18.2439-20.1874 32.6426-20.1874h551.1836734693877c9.9265 0 18.3902 3.3855 25.4119 10.1773s14.2733 15.0047 14.2733 24.5969v295.70612244897956c0 25.7045-12.7478 38.494-27.1256 43.6767s-29.6751 1.3793-39.7061-9.8429L566.5019 261.5478c-7.0844-7.9203-16.3213-12.0163-27.1673-12.0163s-20.0829 4.0751-27.1673 11.9954l-85.5771 95.5873c-7.1471 7.9621-16.4467 12.0581-27.3345 11.9954-10.8878-0.0418-20.1665-4.2214-27.23-12.2462l-164.8431-187.6428C197.9246 158.6462 195.9393 144.7282 201.9788 132.1058z"  horiz-adv-x="1024" />

    
    <glyph glyph-name="home" unicode="&#58896;" d="M511.998 854.125l-185.725-186.034v74.404h-148.579v-223.243l-130.811-131.046 26.263-26.3 438.852 439.601 438.855-439.602 26.263 26.301-465.119 465.92zM177.693 370.4v-446.511h260.017v260.471h148.585v-260.471h260.017v446.511l-334.313 334.875-334.305-334.875z"  horiz-adv-x="1024" />

    
    <glyph glyph-name="mobile" unicode="&#58899;" d="M728.1366043115236 883.3432981946615L295.86141312646487 883.3432981946615c-51.017772124511716 0-92.63103557080079-41.66906975683594-92.63103557080079-92.62724002075196l0-802.7654487121582c0-50.95717898291016 41.613263446289054-92.62624873974609 92.63103557080079-92.62624873974609l432.2751911850586 0c50.895802894042966 0 92.63103557080079 41.66906975683594 92.63103557080079 92.62624873974609L820.7676389133301 790.7160581739095C820.7676389133301 841.6742284378255 779.0324072055664 883.3432981946615 728.1366043115236 883.3432981946615zM388.4924486972657 837.0296776997884l247.0151035744629 0 0-30.875746350585935L388.4924486972657 806.1539313492025 388.4924486972657 837.0296776997884zM511.9985125939941-42.924146576822864c-34.1305114284668 0-61.753032432861325 27.677908709472653-61.753032432861325 61.75050238916016 0 34.071601429687504 27.621528754394532 61.75050238916016 61.753032432861325 61.75050238916016 34.01151701000977 0 61.755014994873044-27.678899990478516 61.755014994873044-61.75050238916016C573.7535275888672-15.24623786735026 546.010029604004-42.924146576822864 511.9985125939941-42.924146576822864zM759.013616168457 142.3283509026694L264.9844012695312 142.3283509026694 264.9844012695312 759.8403108543295l494.0302061799316 0L759.014607449463 142.3283509026694z"  horiz-adv-x="1024" />

    
    <glyph glyph-name="update" unicode="&#58981;" d="M940.56 261.852h-1.802l-0.018 0.207c0 23.245-18.567 42.089-41.501 42.089s-41.502-18.843-41.502-42.089l0.417-3.914c0-8.651 2.574-16.691 6.983-23.377-59.166-144.003-199.259-245.231-362.695-245.231-216.862 0-392.779 178.333-392.779 398.338 0 220.009 175.917 398.342 392.779 398.342 188.395 0 345.798-134.501 383.953-313.991h65.441c-39.354 215.068-225.327 377.937-448.77 377.937-252.060 0-456.453-207.258-456.453-462.912 0-255.654 204.393-462.912 456.453-462.912 199.464 0 369.069 129.788 431.169 310.639 4.066 6.242 6.529 13.646 6.813 21.616 0.508 1.751 1.027 3.498 1.514 5.256zM949.203 830.661c-19.539 0-35.407-15.865-35.407-35.471v-248.31h-248.388c-19.537 0-35.472-15.9-35.472-35.472s15.935-35.475 35.472-35.475h283.795c19.607 0 35.472 15.899 35.472 35.475v283.782c0 19.606-15.866 35.471-35.473 35.471z"  horiz-adv-x="1024" />

    
    <glyph glyph-name="turnleft" unicode="&#59020;" d="M511.213-2.070l-381.116 387.414 381.116 381.133v-150.778l-230.345-230.355 230.345-230.353v-157.060zM830.537-2.070l-381.116 387.414 381.116 381.133v-150.778l-230.344-230.355 230.344-230.354v-157.060z"  horiz-adv-x="1024" />

    
    <glyph glyph-name="turnright" unicode="&#59021;" d="M512.787 770.070l381.116-387.414-381.116-381.133v150.778l230.345 230.355-230.345 230.353v157.060zM193.463 770.070l381.116-387.414-381.116-381.133v150.778l230.344 230.355-230.344 230.354v157.060z"  horiz-adv-x="1024" />

    
    <glyph glyph-name="add" unicode="&#59327;" d="M512-74.624c-256.048 0-463.609 207.562-463.609 463.609s207.562 463.609 463.609 463.609 463.609-207.562 463.609-463.609-207.562-463.609-463.609-463.609zM512 794.643c-224.042 0-405.658-181.615-405.658-405.658s181.615-405.658 405.658-405.658 405.658 181.615 405.658 405.658-181.615 405.658-405.658 405.658zM700.898 360.691h-160.603v-160.603c0-15.629-12.667-28.295-28.295-28.295s-28.295 12.668-28.295 28.295v160.603h-160.603c-15.629 0-28.295 12.667-28.295 28.295s12.668 28.295 28.295 28.295h160.603v160.603c0 15.629 12.667 28.295 28.295 28.295s28.295-12.668 28.295-28.295v-160.603h160.603c15.629 0 28.295-12.667 28.295-28.295s-12.668-28.295-28.295-28.295z"  horiz-adv-x="1024" />

    
    <glyph glyph-name="print" unicode="&#58895;" d="M881.414 53.913h-66.078c-13.787-53.81-61.654-93.761-119.099-93.761h-370.282c-57.456 0-105.307 39.952-119.060 93.761h-66.080c-68.177 0-123.437 56.001-123.437 125.057v62.502c0 69.063 55.261 125.040 123.437 125.040h61.695c0 20.357 0 27.375 0 29.477 0 0.439 0 0.637 0 0.747 0 1.989 0 9.269 0 32.284v281.357c0 69.057 55.261 125.049 123.443 125.049h370.282c68.186 0 123.459-55.984 123.459-125.049v-343.862h61.718c68.162 0 123.437-55.979 123.437-125.040v-62.502c0.002-69.063-55.265-125.057-123.429-125.057v0zM325.954 22.654h370.282c34.103 0 61.743 27.988 61.743 62.55 0 34.495-27.638 62.502-61.743 62.502h-370.282c-34.070 0-61.727-28.013-61.727-62.502 0-34.562 27.659-62.55 61.727-62.55v0zM757.977 710.372c0 34.528-27.638 62.502-61.743 62.502h-370.282c-34.070 0-61.727-27.977-61.727-62.502v-343.862h493.755v343.862h-0.002zM943.126 241.475c0 34.524-27.617 62.531-61.724 62.531h-740.597c-34.103 0-61.718-28.013-61.718-62.531v-62.502c0-34.54 27.613-62.502 61.718-62.502h66.080c13.757 53.805 61.612 93.761 119.060 93.761h370.282c57.486 0 105.312-39.952 119.099-93.761h66.078c34.103 0 61.724 27.965 61.724 62.502v62.502h-0.002z"  horiz-adv-x="1024" />

    
    <glyph glyph-name="watch" unicode="&#58907;" d="M513.557175265625 84.25065412499998c-16.66505334375 0-30.17317471875-13.516180453125-30.17317471875-30.165115640625 0-16.67008940625 13.508121375-30.186269859375003 30.17317471875-30.186269859375003 16.662031312499998 0 30.1701526875 13.516180453125 30.1701526875 30.186269859375003C543.727327953125 70.7344736718751 530.2192065781251 84.25065412499998 513.557175265625 84.25065412499998zM257.173836078125 173.47980440624997c-11.78057278125-11.785609828125-11.78057278125-30.89340646875 0-42.6679351875 11.78661684375-11.795682937499999 30.889377421874997-11.795682937499999 42.67700128125 0 11.776543734375 11.77452871875 11.776543734375 30.882325359375 0 42.6679351875C288.06321251562497 185.25433312500002 268.96045193749995 185.25433312500002 257.173836078125 173.47980440624997zM181.65326234375004 416.160611109375c-16.66505334375 0-30.177203765625-13.516180453125-30.177203765625-30.186269859375003 0-16.648936171875 13.511143406250001-30.165115640625 30.177203765625-30.165115640625 16.658002265625 0 30.177203765625 13.516180453125 30.177203765625 30.165115640625C211.82945909374996 402.64543865625 198.3183156875 416.160611109375 181.65326234375004 416.160611109375zM768.6864059375 597.1936143749999c11.78661684375 11.77452871875 11.78661684375 30.882325359375 0 42.657862078125-11.78057278125 11.795682937499999-30.882325359375 11.795682937499999-42.669950203125 0-11.776543734375-11.77452871875-11.776543734375-30.882325359375 0-42.657862078125C737.803072578125 585.40800553125 756.90583315625 585.40800553125 768.6864059375 597.1936143749999zM513.557175265625 868.753192875c-266.62674740625 0-482.768778515625-216.14606114062502-482.768778515625-482.777844609375 0-266.610630234375 216.14102409375-482.756691375 482.768778515625-482.756691375 266.62070334375 0 482.76474946875 216.14606114062502 482.76474946875 482.756691375C996.32192571875 652.6071327187499 780.177878609375 868.753192875 513.557175265625 868.753192875zM513.557175265625-36.31512239062499c-233.223106921875 0-422.292485671875 189.07240078125002-422.292485671875 422.289463640625 0 233.22814298437498 189.06937875 422.289463640625 422.292485671875 422.289463640625 233.220084890625 0 422.289463640625-189.06132065625002 422.289463640625-422.289463640625C935.846639890625 152.75727839062506 746.7772601562501-36.31512239062499 513.557175265625-36.31512239062499zM543.727327953125 470.96268689062504L543.727327953125 717.885306234375c0 16.67008940625-13.508121375 30.17518875-30.1701526875 30.17518875-16.66505334375 0-30.17317471875-13.50509934375-30.17317471875-30.17518875l0-246.922618359375c-5.667165984375-2.0156416874999996-11.07746521875-4.56818315625-16.168446-7.607257875-5.3307213749999995-3.1760701875-124.822698328125 137.107936546875-175.806036 185.54779884375-11.651636390624999 11.067392109375-35.761769859375 14.148775265625-46.565245125 1.497880125-9.35293865625-10.951550859374999-13.751892-32.131398796875004-6.998838328124999-45.557927296875 5.1574635-10.309889953125001 188.44182-198.46261082812498 188.44182-198.46261082812498s-3.250611984375-9.22198725-3.250611984375-20.40522159375c0-49.990122984375 40.5314161875-90.516502125 90.52053117187499-90.516502125 39.355876546875 0 72.50970234375 25.269554953125002 84.971221453125 60.351385500000006 0 0 7.54178315625 14.000699671875 7.54178315625 28.4980066875 0 15.63658228125-7.54178315625 31.853379796875-7.54178315625 31.853379796875C589.4323248125 441.74646346875 569.3282904687501 461.85654089062496 543.727327953125 470.96268689062504zM513.557175265625 355.80922560937506c-16.66505334375 0-30.17317471875 13.516180453125-30.17317471875 30.165115640625 0 16.67008940625 13.508121375 30.186269859375003 30.17317471875 30.186269859375003 16.662031312499998 0 30.1701526875-13.516180453125 30.1701526875-30.186269859375003C543.727327953125 369.3254050781251 530.2192065781251 355.80922560937506 513.557175265625 355.80922560937506zM726.7256073593751 172.55105840624992c-11.776543734375-11.77452871875-11.776543734375-30.89340646875 0-42.6679351875 11.78661684375-11.795682937499999 30.889377421874997-11.795682937499999 42.67700128125 0 11.7835948125 11.77452871875 11.7835948125 30.89340646875 0 42.6679351875C757.6149847812501 184.32558712500008 738.51323121875 184.32558712500008 726.7256073593751 172.55105840624992z"  horiz-adv-x="1024" />

    
    <glyph glyph-name="car" unicode="&#59090;" d="M727.627 572.958v-123.095h153.437v21.079l-58.154 102.016zM804.355 182.622c-27.94 0-50.585-22.664-50.585-50.608 0-27.94 22.646-50.584 50.585-50.584 27.941 0 50.585 22.645 50.585 50.584 0.001 27.942-22.644 50.608-50.585 50.608zM254.651 182.622c-27.941 0-50.591-22.664-50.591-50.608 0-27.94 22.651-50.584 50.591-50.584s50.591 22.645 50.591 50.584c-0.001 27.942-22.652 50.608-50.591 50.608zM161.219 239.096h-102.999c-15.837 0-28.677-12.844-28.677-28.691v-62.343c0-15.848 12.84-28.691 28.677-28.691h56.325c-0.415 4.446-0.682 8.933-0.682 13.496 0 42.188 18.344 79.989 47.355 106.231zM254.651 242.476c-60.999 0-110.448-49.46-110.448-110.46 0-60.999 49.449-110.44 110.448-110.44s110.448 49.441 110.448 110.44c0 61-49.449 110.46-110.448 110.46zM254.651 81.432c-27.941 0-50.591 22.645-50.591 50.584 0 27.941 22.651 50.608 50.591 50.608s50.591-22.664 50.591-50.608c-0.001-27.94-22.652-50.584-50.591-50.584zM804.355 242.476c-60.999 0-110.44-49.46-110.44-110.46 0-60.999 49.441-110.44 110.44-110.44 61 0 110.459 49.441 110.459 110.44 0.001 61-49.459 110.46-110.459 110.46zM804.355 81.432c-27.94 0-50.585 22.645-50.585 50.584 0 27.941 22.646 50.608 50.585 50.608 27.941 0 50.585-22.664 50.585-50.608 0.001-27.94-22.644-50.584-50.585-50.584zM651.748 239.096h-298.6c29.013-26.241 47.355-64.043 47.355-106.231 0-4.564-0.267-9.049-0.682-13.496h260.996c-0.376 4.17-0.632 8.378-0.632 12.646 0 42.82 19.068 81.095 49.085 107.080h-57.523zM972.1 239.096h-77.737c30.035-25.985 49.103-64.259 49.103-107.080 0-4.269-0.276-8.477-0.652-12.646h29.284c15.848 0 28.691 12.844 28.691 28.691v62.341c0.001 15.848-12.843 28.691-28.69 28.691zM969.591 420.82l-124.983 211.996h-149.011c-15.827 0-28.672-12.84-28.672-28.677v-365.044h42.346c24.838 21.479 57.128 34.56 92.556 34.56 35.41 0 67.716-13.081 92.536-34.56h75.226v181.724zM881.065 449.862h-153.437v123.095h95.284l58.154-102.016v-21.079zM582.575 270.298h57.36v52.26h-0.257c-2.588-29.29-27.141-52.26-57.102-52.26zM86.902 270.298h495.671c29.962 0 54.514 22.971 57.101 52.26 0.148 1.685 0.257 3.379 0.257 5.099v369.207c0 31.68-25.679 57.359-57.36 57.359h-495.67c-31.681 0-57.359-25.678-57.359-57.359v-369.208c0-31.68 25.678-57.358 57.359-57.358z"  horiz-adv-x="1024" />

    
    <glyph glyph-name="remind" unicode="&#59025;" d="M970.246 66.222c-9.922 65.079-124.724 78.687-126.677 123.307-1.969 44.62 9.686 277.247 9.686 277.247 6.552 182.574-118.913 282.476-247.732 328.12 0.142 0.488 0 1.307-0.142 2.158 0.016 0.929 0.142 1.827 0.142 2.772 0 51.629-41.879 93.508-93.523 93.508s-93.523-41.879-93.523-93.523c0-0.945 0.11-1.843 0.142-2.772-0.142-0.851-0.283-1.654-0.142-2.158-128.835-45.644-254.3-145.53-247.732-328.12 0 0 11.655-232.612 9.686-277.247-1.969-44.62-116.755-58.212-126.677-123.307-6.473-25.106 22.507-50.243 50.274-50.243h294.257c-0.677-5.119-1.166-10.3-1.166-15.592 0-63.472 51.424-114.959 114.88-115.038 63.457 0.079 114.88 51.566 114.88 115.038 0 5.292-0.488 10.474-1.165 15.592h294.257c27.767 0 56.731 25.153 50.274 50.258z"  horiz-adv-x="1024" />

    
    <glyph glyph-name="remind-circle" unicode="&#59197;" d="M508.945 769.148c20.357 0 41.721-3.535 57.194-6.853l22.372-7.938c100.403-35.566 218.837-112.605 212.946-276.822-1.194-23.658-11.535-232.45-9.55-277.256 2.016-46.109 43.132-69.209 76.187-87.768 17.488-9.83 40.682-22.853 47.272-34.077-0.666-0.264-1.302-0.434-1.768-0.45h-803.149c-0.48 0.016-1.116 0.202-1.798 0.466 6.62 11.225 29.783 24.232 47.286 34.062 33.039 18.558 74.14 41.659 76.187 87.768 1.954 44.807-8.372 253.582-9.52 276.59-5.954 164.884 112.481 241.923 212.884 277.489l27.705 9.83c12.791 2.62 29.008 4.961 45.752 4.961M508.945 815.659c-47.798 0-88.853-14.9-88.853-15.334-0.14-0.837-0.279-1.628-0.14-2.124-126.822-44.931-250.327-143.256-243.861-323.009 0 0 11.457-228.977 9.535-272.899-1.938-43.939-114.931-57.318-124.713-121.38-6.356-24.728 22.155-49.458 49.488-49.458h803.18c27.333 0 55.86 24.744 49.473 49.458-9.767 64.062-122.775 77.442-124.698 121.38-1.938 43.923 9.535 272.899 9.535 272.899 6.45 179.753-117.055 278.078-243.861 323.009 0.14 0.48 0.016 1.287-0.14 2.124 0.046 0.466-47.783 15.334-94.946 15.334v0zM512.016 786.9c33.458 0 65.69-4.946 96.388-13.55 0.326 3.256 0.512 6.527 0.512 9.86 0 53.504-43.38 96.915-96.9 96.915-53.519 0-96.9-43.411-96.9-96.915 0-3.333 0.17-6.604 0.512-9.86 30.682 8.604 62.93 13.55 96.388 13.55zM348.713 9.317c21.101-70.232 86.186-121.442 163.287-121.442s142.202 51.209 163.287 121.442h-326.574z"  horiz-adv-x="1024" />

    
    <glyph glyph-name="themes" unicode="&#58912;" d="M777.1097251953125 393.110049609375l46.14786650390625 121.46975419921876-138.47275107421876 72.88039511718749-83.812454296875 0c-22.031743359375-64.2659326171875-63.45696005859375-73.00429189453126-82.39128662109374-73.44157412109375-2.03336279296875-0.13118466796875-4.12503046875-0.19677744140625003-6.2895779296875-0.19677744140625003-2.1353958984375003 0-4.2270626953125 0.0728806640625-6.2604263671875 0.19677744140625003-18.606364453125 0.24779355468750003-60.70936904296874 8.41039716796875-83.01805839843749 73.44157412109375l-83.812454296875 0-138.47275107421876-72.88039511718749 46.16244228515625-121.46975419921876 98.38853349609376 49.7991744140625c0 0 0-213.02210742187503-1.2098144531250001-291.52158046874996l165.19070390625 0 5.4660295898437505 0 165.2052796875 0c0 40.696412695312496-1.2098144531250001 291.52158046874996-1.2098144531250001 291.52158046874996L777.1097251953125 393.110049609375zM511.992712109375-65.99271210937502C263.87140625-65.99271210937502 62 135.86411835937497 62 384 62 632.1285937499999 263.87140625 834 511.992712109375 834c248.13588164062503 0 450.007287890625-201.87140625 450.007287890625-450C962 135.86411835937497 760.1285937499999-65.99271210937502 511.992712109375-65.99271210937502zM511.992712109375 797.5598024414062C283.95724326171876 797.5598024414062 98.44019755859375 612.0354688476563 98.44019755859375 384c0-228.03546884765626 185.517045703125-413.55251455078127 413.55251455078127-413.55251455078127s413.5670903320312 185.517045703125 413.5670903320312 413.55251455078127C925.5598024414063 612.0354688476563 740.0281800781249 797.5598024414062 511.992712109375 797.5598024414062z"  horiz-adv-x="1024" />

    
    <glyph glyph-name="download" unicode="&#58939;" d="M880.661 17.529v0c-19.986 0-36.206 16.202-36.206 36.206s16.221 36.206 36.206 36.206h10.319c123.843 0 205.598 137.511 205.598 260.903 0 135.593-117.96 244.718-252.43 247.542l-26.105 0.561-7.73 24.928c-37.365 120.857-118.159 191.712-261.971 191.712-179.42 0-295.479-133.022-295.479-309.382l0.272-0.416 2.932-33.201-32.857-5.666c-80.070-13.759-143.902-95.892-143.902-186.933 0-103.025 79.798-190.046 172.921-190.046h32.187c19.986 0 36.206-16.202 36.206-36.206s-16.221-36.206-36.206-36.206h-32.187c-132.389 0-244.229 120.186-244.229 262.459 0 116.222 72.611 218.831 173.193 251 12.564 202.122 158.511 357.012 367.149 357.012 163.942 0 272.488-84.868 322.996-218.867 163.724-17.614 294.683-151.161 294.683-318.289 0-155.469-104.347-328.445-285.377-333.206v-0.108zM586.503-42.247l116.222 128.171c10.119 10.572 26.485 10.572 36.586 0l9.124-7.277c10.119-10.609 10.119-23.19 0-33.762l-133.999-146.798c-0.181-0.218-0.253-0.416-0.416-0.598l-9.161-9.595c-5.014-5.304-11.694-7.929-18.357-7.875-6.68-0.036-13.324 2.589-18.429 7.875l-9.161 9.595c-0.181 0.181-0.218 0.416-0.38 0.598l-130.687 144.536c-10.119 10.572-10.119 27.68 0 38.288l9.124 5.014c10.119 10.572 26.521 8.309 36.623-2.263l112.909-125.907zM586.883 398.763c19.986 0 36.206-16.221 36.206-36.206v-398.268c0-20.003-16.221-36.206-36.206-36.206s-36.206 16.202-36.206 36.206v398.268c0 19.986 16.202 36.206 36.206 36.206z"  horiz-adv-x="1177" />

    
    <glyph glyph-name="people" unicode="&#58928;" d="M838.105 97.631l-0.135 0.169c-52.127 52.060-116.586 91.721-188.695 114.228 37.199 16.748 70.692 40.099 99.132 68.538l-0.134 0.1c60.652 60.585 98.086 144.218 98.086 236.307 0 92.056-37.433 175.521-97.953 236.138l-0.134 0.102-0.068 0.066c-60.482 60.55-144.082 97.988-236.104 97.988-92.159 0-175.758-37.435-236.273-98.054l-0.202 0.066c-60.415-60.483-97.852-143.981-97.852-236.306 0-92.327 37.435-175.925 97.852-236.408 28.474-28.44 62-51.791 99.199-68.538-72.041-22.507-136.535-62.167-188.695-114.228l-0.169-0.169c-47.172-47.343-84.24-104.725-107.558-168.681h90.574c18.769 40.973 44.75 78.107 76.152 109.645 68.301 68.134 162.716 110.454 266.972 110.454 104.221 0 198.602-42.321 266.868-110.454 31.473-31.538 57.383-68.673 76.222-109.645h90.404c-23.15 63.954-60.18 121.339-107.491 168.682zM269.931 516.972c0 66.817 27.192 127.436 70.896 171.14v0.17c43.737 43.737 104.255 70.76 171.276 70.76 66.919 0 127.468-27.023 171.205-70.76l0.17-0.17c43.635-43.702 70.626-104.153 70.626-171.14s-26.992-127.606-70.626-171.241h-0.17c-43.837-43.805-104.422-70.897-171.205-70.897-66.82 0-127.437 27.091-171.276 70.897-43.702 43.772-70.896 104.355-70.896 171.241z"  horiz-adv-x="1024" />

    
    <glyph glyph-name="edit" unicode="&#59094;" d="M906.961 784.776c-48.504 48.445-112.371 76.074-175.321 76.074-53.104 0-101.991-19.696-137.699-55.345l-143.506-144.597c-0.442-0.413-0.943-0.679-1.386-1.121-0.237-0.236-0.383-0.56-0.619-0.767l0.059-0.059-304.558-306.917c-14.035-13.947-24.207-31.314-29.869-50.274l-69.262-250.864c-0.059-0.679-4.57-20.374-4.57-30.4 0-56.967 46.263-103.201 103.318-103.201 11.351 0 33.319 5.426 34.115 5.544l249.979 65.723c18.99 5.631 36.238 15.893 50.274 29.957l450.039 453.578c81.852 81.912 72.623 219.196-20.993 312.666zM512.413 159.238c-2.418 26.597-9.936 52.69-21.2 77.459l278.787 278.758c17.043-53.841 8.285-110.158-29.073-147.546-0.236-0.236-0.531-0.383-0.738-0.619l0.413-0.383-227.864-229.693c0 7.342 0.355 14.536-0.324 22.026zM476.411 263.588c-10.998 18.075-23.501 35.53-38.981 50.98-18.017 18.017-38.685 32.139-60.269 43.992l281.058 281.058c22.056-9.79 43.197-23.735 61.861-42.401 15.952-15.893 28.277-33.702 37.771-52.219l-281.441-281.411zM349.417 372.507c-27.304 10.998-55.905 17.278-84.564 17.662l227.128 228.868c34.763 33.909 85.39 43.667 135.25 31.314l-277.814-277.843zM163.096-19.975c-3.214-0.738-13.209-3.273-19.991-3.743-24.237 0.296-43.904 19.991-43.904 44.229 0.355 4.953 2.329 13.476 3.008 16.572l31.048 112.458c33.702 0.914 69.969-12.207 98.482-40.779 28.955-28.897 42.578-65.871 41.103-99.985l-109.746-28.748zM301.886 16.468c-0.708 39.569-16.807 80.732-49.3 113.166-30.724 30.755-70.942 48.504-111.043 50.096l29.368 106.355c2.123 7.077 6.339 14.065 11.528 20.168 59.147 42.342 150.111 29.84 213.299-33.408 66.844-66.814 77.164-164.707 25.682-223.148-3.42-1.799-6.87-3.51-10.585-4.599l-108.949-28.63zM886.202 513.744l-49.654-50.037c0 6.664 0.796 13.062 0.177 19.874-5.189 57.054-31.785 112.221-74.982 155.361-48.033 48.062-111.721 75.631-174.791 75.807l48.829 49.241c24.444 24.385 58.559 37.89 95.858 37.89 47.442 0 96.182-21.465 133.659-58.824 35.177-35.117 56.141-78.757 59.147-122.896 2.771-41.192-10.822-78.962-38.243-106.415z"  horiz-adv-x="1025" />

    
    <glyph glyph-name="set" unicode="&#59088;" d="M896.396 318.08399999999983c4.07 22.504999999999995 6.313999999999999 45.644 6.313999999999999 69.32 0 21.827-1.8969999999999998 43.19899999999999-5.37 64.043 55.66 34.715 85.943 85.76299999999999 69.771 124.803-16.238 39.193-74.159 53.75099999999999-138.363 38.643-23.603 32.44-52.09499999999999 61.073-84.438 84.802 23.935999999999996 72.196 10.691 141.33599999999998-32.737 159.324-43.36099999999999 17.96-101.541-21.384999999999998-135.688-89.16899999999998-19.664 3.079-39.80799999999999 4.707-60.329 4.707-20.129 0-39.903-1.5439999999999998-59.19899999999999-4.503-34.168 67.661-92.267 106.91099999999999-135.589 88.965-43.286-17.926999999999996-56.573-86.677-32.962-158.613-34.114-24.865-63.96999999999999-55.166999999999994-88.371-89.637-70.089 21.379-136.088 7.755999999999999-153.597-34.523-17.722-42.785 20.342999999999996-100.002 86.468-134.317-2.514-17.821-3.8979999999999997-36.005-3.8979999999999997-54.523999999999994 0-23.675 2.239-46.815999999999995 6.312-69.32-67.609-34.17-106.818-92.239-88.883-135.542 18.308-44.20499999999999 89.60799999999999-57.181 163.177-31.473 22.492-29.135999999999996 49.022-54.967 78.79-76.664-23.601999999999997-71.935-10.319-140.681 32.962-158.605 43.32-17.951 101.423 21.303999999999995 135.589 88.961 19.298999999999996-2.962 39.068-4.503 59.19899999999999-4.503 20.522 0 40.666 1.63 60.329 4.7059999999999995 34.152-67.781 92.334-107.128 135.694-89.163 43.426 17.985999999999997 56.67 87.12999999999998 32.734 159.31999999999996 29.365 21.549 55.539 47.13799999999999 77.78699999999999 75.94699999999999 73.58099999999999-25.704999999999995 144.868-12.723 163.17599999999996 31.473 17.938 43.30199999999999-21.271 101.373-88.88 135.542zM515.562 156.92899999999997c-127.28599999999999 0-230.47899999999998 103.189-230.47899999999998 230.47299999999998s103.192 230.475 230.47899999999998 230.475c127.287 0 230.46999999999997-103.189 230.46999999999997-230.475 0-127.28599999999999-103.183-230.47299999999998-230.46999999999997-230.47299999999998z"  horiz-adv-x="1024" />

    
    <glyph glyph-name="firstfile" unicode="&#58884;" d="M802.599 780.069h-52.735c-14.585 0-31.418-8.978-31.418-23.561 0-14.589 16.834-29.174 31.418-29.174h52.735c31.418 0 52.735-21.322 52.735-52.735v-607.006c0-31.413-21.317-52.735-52.735-52.735h-567.738c-31.412 0-66.195 21.322-66.195 52.735v607.006c0 31.413 21.317 52.735 52.735 52.735h66.197c14.589 0 20.198 14.586 20.198 29.174 0 14.585-5.608 23.561-20.198 23.561h-66.197c-74.051 0-105.471-46.003-105.471-106.591v-600.276c0-65.076 39.27-111.078 111.078-111.078h569.977c71.813 0 111.083 38.151 111.083 111.078v600.276c0 60.588-37.026 106.591-105.471 106.591v0 0zM709.473 423.268h-394.952c-14.581 0-26.925-12.34-26.925-26.931 0-14.585 12.344-26.925 26.925-26.925h396.071c14.585 0 26.93 12.34 26.93 26.925-1.119 15.71-13.464 26.931-28.048 26.931v0 0zM421.117 713.869h184.011c21.317 0 39.27 21.318 39.27 46.004 0.001 24.68-17.951 46.003-40.395 46.003h-182.887c-22.441 0-40.389-21.318-40.389-46.003 0-24.686 17.949-46.004 40.389-46.004v0 0z"  horiz-adv-x="1024" />

    
    <glyph glyph-name="secondfile" unicode="&#58885;" d="M802.599 780.069h-52.735c-14.585 0-31.418-8.978-31.418-23.561 0-14.589 16.834-29.174 31.418-29.174h52.735c31.418 0 52.735-21.322 52.735-52.735v-607.006c0-31.413-21.317-52.735-52.735-52.735h-567.738c-31.412 0-66.195 21.322-66.195 52.735v607.006c0 31.413 21.317 52.735 52.735 52.735h66.197c14.589 0 20.198 14.586 20.198 29.174 0 14.585-5.608 23.561-20.198 23.561h-66.197c-74.051 0-105.471-46.003-105.471-106.591v-600.276c0-65.076 39.27-111.078 111.078-111.078h569.977c71.813 0 111.083 38.151 111.083 111.078v600.276c0 60.588-37.026 106.591-105.471 106.591v0 0zM709.473 494.049h-394.952c-14.581 0-26.925-12.34-26.925-26.931 0-14.585 12.344-26.925 26.925-26.925h396.071c14.585 0 26.93 12.34 26.93 26.925-1.119 15.71-13.464 26.931-28.048 26.931v0 0zM709.473 343.050h-394.952c-14.581 0-26.925-12.34-26.925-26.931 0-14.585 12.344-26.925 26.925-26.925h396.071c14.585 0 26.93 12.34 26.93 26.925-1.119 15.71-13.464 26.931-28.048 26.931v0 0zM421.117 713.869h184.011c21.317 0 39.27 21.318 39.27 46.004 0.001 24.68-17.951 46.003-40.395 46.003h-182.887c-22.441 0-40.389-21.318-40.389-46.003 0-24.686 17.949-46.004 40.389-46.004v0 0z"  horiz-adv-x="1024" />

    
    <glyph glyph-name="thirdfile" unicode="&#58886;" d="M802.599 780.069h-52.735c-14.585 0-31.418-8.978-31.418-23.561 0-14.589 16.834-29.174 31.418-29.174h52.735c31.418 0 52.735-21.322 52.735-52.735v-607.006c0-31.413-21.317-52.735-52.735-52.735h-567.738c-31.412 0-66.195 21.322-66.195 52.735v607.006c0 31.413 21.317 52.735 52.735 52.735h66.197c14.589 0 20.198 14.586 20.198 29.174 0 14.585-5.608 23.561-20.198 23.561h-66.197c-74.051 0-105.471-46.003-105.471-106.591v-600.276c0-65.076 39.27-111.078 111.078-111.078h569.977c71.813 0 111.083 38.151 111.083 111.078v600.276c0 60.588-37.026 106.591-105.471 106.591v0 0zM709.473 423.268h-394.952c-14.581 0-26.925-12.34-26.925-26.931 0-14.585 12.344-26.925 26.925-26.925h396.071c14.585 0 26.93 12.34 26.93 26.925-1.119 15.71-13.464 26.931-28.048 26.931v0 0zM709.473 569.133h-394.952c-14.581 0-26.925-12.34-26.925-26.931 0-14.585 12.344-26.925 26.925-26.925h396.071c14.585 0 26.93 12.34 26.93 26.925-1.119 15.71-13.464 26.931-28.048 26.931v0 0zM709.473 265.193h-394.952c-14.581 0-26.925-12.34-26.925-26.931 0-14.585 12.344-26.925 26.925-26.925h396.071c14.585 0 26.93 12.34 26.93 26.925-1.119 15.71-13.464 26.931-28.048 26.931v0 0zM421.117 713.869h184.011c21.317 0 39.27 21.318 39.27 46.004 0.001 24.68-17.951 46.003-40.395 46.003h-182.887c-22.441 0-40.389-21.318-40.389-46.003 0-24.686 17.949-46.004 40.389-46.004v0 0z"  horiz-adv-x="1024" />

    
    <glyph glyph-name="permission" unicode="&#59047;" d="M462.5 700.9384611328126c35.342307421875 50.157692578125 104.78076943359375 63 154.9038462890625 27.657692578125 50.157692578125-35.965384277343745 62.4115388671875-105.33461572265625 27.034615722656252-155.5615388671875-34.753846289062494-50.78076943359375-70.71923056640625-14.815384277343751-121.56923056640625 20.526923144531253C472.71153886718747 629.007692578125 427.08846113281254 650.2269231445312 462.5 700.9384611328126zM123.7538462890625 109.5692305664063l-10.9384611328125-4.46538427734375 1.3499999999999999 12.18461572265625 222.33461572265625 321.4384611328125 13.53461572265625-12.18461572265625L123.7538462890625 109.5692305664063zM483.0615388671875 350.0769231445313c9.657692578125001 12.77307685546875 19.9384611328125 24.957692578125002 31.5 37.176923144531244 28.31538427734375 27.726923144531252 61.06153886718751 50.157692578125 97.02692314453125 65.042307421875 37.9384611328125 16.026923144531253 78.4384611328125 24.33461572265625 119.5961537109375 24.33461572265625l12.18461572265625 0c19.349999999999998 48.15 24.542307421874998 106.06153886718751 14.88461572265625 161.96538427734376-22.5 128.5615388671875-144.692307421875 214.68461572265625-273.2192305664062 191.5615388671875-127.97307685546878-22.5-235.9038462890625-121.53461572265626-213.507692578125-250.02692314453125 5.192307421875-27.657692578125 18.657692578125-70.71923056640625 34.753846289062494-102.21923056640625l-232.68461572265625-333.0692305664063c-8.376923144531249-12.18461572265625-13.46538427734375-34.61538427734375-10.9384611328125-49.43076943359375l10.35-57.18461572265625c-2.63076943359375 14.746153710937499-3.8423074218750006 20.492307421874997-3.8423074218750006 20.492307421874997 0.6230768554687499 0 8.307692578125002-39.7384611328125 14.123076855468751-39.7384611328125l76.46538427734374-1.3499999999999999c14.815384277343751 2.5615388671874997 33.473076855468754 14.746153710937499 41.157692578125 27.726923144531252l91.83461572265625 142.65 1.3499999999999999 1.3499999999999999 80.307692578125-6.507692578125 107.37692314453125 167.22692314453124L483.0615388671875 350.0769231445313zM800 141.1384611328125c-18.72692314453125-43.823076855468756-69.4384611328125-64.28076943359375-113.78076943359375-46.38461572265625-44.4115388671875 18.657692578125-64.97307685546875 69.4384611328125-46.31538427734375 113.192307421875 18 44.342307421875006 69.4384611328125 64.9038462890625 113.12307685546875 46.31538427734375C797.3692305664063 235.5346157226562 818.5884611328124 185.44615371093744 800 141.1384611328125zM898.3076925781249 200.9192305664062L962 240.65769257812508l-23.81538427734375 57.2538462890625-72.692307421875-17.307692578125c-10.28076943359375 14.746153710937499-23.12307685546875 26.96538427734375-37.869230566406245 37.9384611328125l16.684615722656247 72.5538462890625-57.946153710937494 23.849999999999998-39.15-62.4115388671875c-18 2.5615388671874997-36.03461572265625 2.5615388671874997-53.342307421875006 0l-39.2884611328125 63-57.807692578125-23.12307685546875 16.0961537109375-72.692307421875c-14.815384277343751-10.28076943359375-27.726923144531252-23.053846289062502-38.5961537109375-37.2461537109375l-72 16.684615722656247-24.4038462890625-57.18461572265625 62.34230742187499-39.87692314453125c-2.4923074218749997-17.93076943359375-2.4923074218749997-36.03461572265625 0-53.342307421875006l-63-39.21923056640625 23.81538427734375-57.18461572265625 72.692307421875 16.026923144531253c10.28076943359375-14.123076855468751 23.12307685546875-26.96538427734375 37.869230566406245-37.869230566406245l-17.307692578125-72.06923056640625 57.807692578125-23.7461537109375 40.56923056640625 62.4115388671875c18-2.63076943359375 35.965384277343745-2.63076943359375 53.342307421875006 0l39.80769257812499-63.06923056640625 57.876923144531254 23.81538427734375-16.684615722656247 72.692307421875c14.123076855468751 10.28076943359375 26.37692314453125 22.43076943359375 37.315384277343746 37.2461537109375l73.2115388671875-16.684615722656247L962 108.28846113281259l-63.692307421875 39.21923056640625C900.8692305664063 165.47307685546878 900.8692305664063 182.8499999999999 898.3076925781249 200.9192305664062z"  horiz-adv-x="1025" />

    
    <glyph glyph-name="copy" unicode="&#58984;" d="M631.466 141.564c-96.258 0-192.518-0.002-288.777 0.001-41.537 0.001-73.878 32.318-73.885 73.985-0.028 191.364-0.027 382.727-0.001 574.092 0.005 41.871 32.397 74.106 74.307 74.106 192.189 0 384.377 0 576.565 0 42.164 0 74.374-32.192 74.384-74.523 0.035-141.257 0.013-282.513 0.013-423.77 0-49.942 0.037-99.886-0.013-149.827-0.037-36.669-24.994-66.626-61.022-73.203-4.019-0.734-8.197-0.823-12.302-0.826-96.423-0.044-192.848-0.035-289.27-0.035zM631.052 200.904c86.865 0 173.73-0.029 260.595 0.054 6.899 0.006 13.841 0.447 20.688 1.289 12.321 1.515 18.436 7.122 20.294 19.297 1.262 8.263 1.826 16.714 1.83 25.081 0.1 170.764 0.087 341.526 0.032 512.29-0.002 6.905-0.435 13.828-1.041 20.71-1.305 14.817-6.789 20.95-21.344 23.367-6.143 1.021-12.457 1.42-18.692 1.423-174.72 0.074-349.439 0.079-524.159-0.017-6.882-0.004-13.829-0.719-20.629-1.826-11.102-1.808-16.734-7.232-18.354-18.331-1.303-8.929-1.988-18.029-1.995-27.053-0.112-169.775-0.094-339.549-0.042-509.324 0.002-6.907 0.396-13.831 0.979-20.716 1.433-16.908 7.387-23.195 23.998-25.18 6.033-0.72 12.15-1.017 18.229-1.021 86.538-0.065 173.072-0.045 259.609-0.045zM396.383-93.222c-96.251 0-192.501-0.003-288.752 0.001-40.926 0.002-73.583 32.348-73.596 73.258-0.061 191.842-0.060 383.685-0.001 575.529 0.012 40.965 32.655 73.394 73.509 73.395 23.568 0.001 47.136 0.010 70.705-0.003 17.439-0.009 30.181-12.566 30.151-29.68-0.030-16.806-12.818-29.354-29.877-29.537-19.266-0.207-38.532-0.585-57.798-0.893-0.494-0.007-0.989-0.034-1.481-0.080-16.478-1.533-23.163-8.162-24.772-25.095-0.669-7.040-1.015-14.14-1.018-21.212-0.054-169.758-0.069-339.515 0.035-509.273 0.005-8.694 0.667-17.453 1.863-26.065 1.716-12.348 8.006-18.182 20.502-19.683 6.525-0.784 13.129-1.268 19.698-1.27 174.043-0.066 348.085-0.063 522.128-0.009 5.913 0.002 11.857 0.389 17.733 1.069 15.721 1.818 22.33 8.27 23.187 24.213 0.928 17.257 0.947 34.569 1.115 51.859 0.179 18.484 13.247 32.119 30.621 31.602 17.712-0.527 29.991-15.524 29.311-34.087-0.743-20.244-0.242-40.532-0.371-60.802-0.197-31.34-19.599-59.181-48.975-69.132-7.497-2.54-15.763-3.916-23.681-3.937-96.746-0.26-193.49-0.169-290.236-0.169zM599.843 468.336c-2.669 0-4.619 0-6.566 0-44.996 0-89.993-0.033-134.988 0.017-16.918 0.018-31.638 12.79-33.674 28.998-2.276 18.114 8.067 33.997 25.219 38.348 3.3 0.837 6.837 1.025 10.266 1.029 44.337 0.065 88.673 0.044 133.010 0.044 2.092 0 4.182 0 6.733 0 0 2.659 0 4.612 0 6.565 0 44.501-0.004 89.003 0.002 133.505 0.003 20.458 14.591 35.581 34.295 35.583 19.668 0.003 34.325-15.162 34.335-35.603 0.020-44.501 0.006-89.003 0.006-133.505 0-1.954 0-3.907 0-6.546 2.564 0 4.658 0 6.753 0 44.996-0.001 89.993 0.053 134.988-0.031 16.85-0.032 31.009-12.321 33.421-28.627 2.529-17.11-7.343-33.261-23.589-38.118-3.568-1.067-7.435-1.583-11.166-1.591-44.667-0.106-89.332-0.068-133.999-0.068-1.937 0-3.876 0-6.407 0 0-2.397 0-4.317 0-6.238 0-44.831 0.089-89.662-0.051-134.494-0.046-14.692-6.772-25.849-20.265-31.786-13.162-5.792-25.892-3.914-36.886 5.632-7.732 6.714-11.438 15.521-11.438 25.82 0.002 44.996 0.001 89.99 0.001 134.987-0.001 1.794-0.001 3.588-0.001 6.079z"  horiz-adv-x="1024" />

    
    <glyph glyph-name="uncollect" unicode="&#58903;" d="M777.0320849115504-72.8353476240029c-5.551976690946931 0-11.103953381893861 1.3963055150884496-16.124004162330902 4.188916545265348l-250.7033306971904 139.06538022892818-251.23525660770034-138.2010006243496c-11.137198751300728-6.150393340270551-24.83429094693028-5.352504474505722-35.20684620187304 1.9947221644120703-10.405800624349636 7.347226638917793-15.691814360041622 20.013712382934443-13.630601456815814 32.547216649323616l48.70446618106139 295.81729698231004-204.0933227887617 209.94450780437043c-8.577305306971903 8.843268262226847-11.602633922996876 21.74247159209157-7.746171071800209 33.44484162330905 3.8232174817898024 11.735615400624347 13.830073673257022 20.379411446409986 25.997878876170653 22.47386971904266l161.1070601456816 27.626901977107174c18.31819854318418 3.0585739854318414 35.30658231009365-9.075985848074922 38.39840166493235-27.161466805411028 3.0918193548387096-18.08548095733611-9.042740478668055-35.273336940686775-27.161466805411028-38.39840166493235l-98.87172861602497-16.9551383975026 171.77882372528614-176.6991383975026c7.347226638917793-7.579944224765868 10.671763579604578-18.18521706555671 8.97624973985432-28.557772320499478l-40.32663309053069-244.85214568158165 207.3846143600416 114.09810780437044c10.006856191467222 5.518731321540063 22.174661394380852 5.518731321540063 32.1482722164412-0.0664907388137357l206.91917918834548-114.7630151925078-39.495498855358996 244.9518817898023c-1.69551383975026 10.405800624349636 1.69551383975026 21.011073465140477 9.042740478668055 28.52452695109261l171.0806709677419 174.8041523413111-234.446345057232 36.17096191467222c-10.970971904266388 1.69551383975026-20.34616607700312 8.743532154006244-25.067008532778353 18.78363371488033l-103.06064516129032 220.64951675338187-103.95827013527575-220.0843454734651c-7.845907180020811-16.622684703433922-27.660147346514044-23.703948387096773-44.28283204994797-15.858041207075962-16.589439334027052 7.845907180020811-23.703948387096773 27.660147346514044-15.858041207075962 44.28283204994797l134.1783109261186 284.0816815816857c5.518731321540063 11.635879292403745 17.221101352757543 19.049596670135276 30.05381394380853 19.049596670135276 0 0 0.03324536940686785 0 0.0664907388137357 0 12.899203329864724-0.03324536940686785 24.601573361082202-7.513453485952133 30.05381394380853-19.182578147762744l125.5012695109261-268.6890755463059 280.85688074921956-43.35196170655567c12.33403204994797-1.894986056191467 22.540360457856398-10.538782101977107 26.496559417273673-22.340888241415193 3.9229535900104056-11.802106139438084 0.8976249739854317-24.867536316337148-7.779416441207076-33.74404994797086l-204.5920033298647-209.04688283038502 47.70710509885536-295.95027845993746c2.0279675338189382-12.566749635796045-3.324536940686784-25.199990010405827-13.73033756503642-32.51397127991675C790.4299687825182-70.84062545959068 783.7476495317377-72.8353476240029 777.0320849115504-72.8353476240029z"  horiz-adv-x="1024" />

    
    <glyph glyph-name="email" unicode="&#58914;" d="M985.298 117.858c1.061 2.77 2.086 5.548 3.031 8.341l-3.433 0.087c-0.882 24.456-20.947 43.988-45.62 43.988-23.884 0-43.48-18.334-45.482-41.716l-0.075 0.002c-34.997-44.546-81.174-76.005-138.51-98.276-57.335-22.316-125.849-36.823-205.523-36.823-82.655 0-151.32 16.696-215.501 43.344-64.179 26.651-117.117 72.442-152.629 130.463-35.491 57.979-52.871 119.95-52.871 190.696 0 72.741 17.939 142.716 49.761 209.944 31.823 67.206 79.909 119.327 142.758 156.384 62.83 37.038 134.65 56.307 224.987 56.307 106.344 0 189.172-28.476 248.525-83.965 59.33-55.49 77.011-124.455 77.011-206.918 0-45.941-5.643-90.36-26.65-133.253-21.007-42.938-41.37-66.326-75.36-91.774-25.341-19.442-81.711-42.187-97.717-42.187-5.344 0-9.914 2.103-13.755 6.309-3.819 4.164-5.752 10.472-5.752 18.841 0 6.695 2.34 23.647 7.018 46.434l73.327 286.891c4.299 6.791 6.796 14.836 6.796 23.472l-0.222 2.243 0.352 1.383h-0.492l-0.044 0.452c0 24.268-19.679 43.944-43.944 43.944-24.268 0-43.945-19.678-43.945-43.944l0.409-4.076c0-3.409 0.401-6.724 1.134-9.909l-4.054-14.94c-28.346 45.575-94.8 73.9-154.131 73.9-50.383 0-126.152-35.557-177.543-115.957-30.277-47.163-60.146-121.817-62.894-204.708-2.103-63.688 16.524-120.25 53.002-158.617 36.521-38.409 81.067-49.354 108.92-49.354 51.349 0 96.69 19.139 136.022 57.335 4.657-18.798 13.99-33.002 28.004-42.745 13.989-9.741 34.825-14.591 62.505-14.591 102.676 0 197.541 54.763 249.768 128.018 44.741 62.357 69.889 146.299 69.889 231.787 0 71.755-11.393 137.868-45.897 198.399-34.482 60.491-78.92 107.163-144.26 140.036-65.339 32.831-140.013 49.267-223.999 49.267-99.028 0-187.004-20.364-264.037-61.090-76.99-40.748-137.673-101.732-182.005-183.036-44.333-81.303-66.499-169.044-66.499-263.245 0-85.808 19.504-165.16 58.514-238.074 38.989-72.915 98.493-132.823 178.486-170.204 80.017-37.377 175.010-56.091 285.025-56.091 113.683 0 210.008 22.145 289.017 66.392 54.428 30.395 97.75 72.488 124.147 119.975 8.353 7.804 13.782 18.7 14.44 30.857zM573.787 351.804c-12.831-39.224-28.088-69.094-45.77-89.52-12.316-14.419-24.805-24.978-37.487-31.674-16.672-9.396-28.84-16.435-47.83-16.435-25.363 0-57.592 10.042-74.759 30.126-17.166 20.128-25.748 51.456-25.748 94.070 0 31.824 16.436 68.366 28.753 109.608 12.339 41.241 30.685 62.013 55.019 84.308 24.334 22.295 46.799 28.689 75.487 28.689 26.651 0 54.976-7.768 72.465-28.066 17.509-20.277 28.624-35.986 28.624-73.858 0-33.86-15.922-68.020-28.755-107.248z"  horiz-adv-x="1024" />

    
    <glyph glyph-name="basedata" unicode="&#58960;" d="M428.2652444444444 722.4866133333333l-1.2379022222222222 0c-0.8317155555555554-9.189831111111111-2.901333333333333-17.518364444444444-6.190648888888888-25.025422222222225L389.88231111111116 603.6138666666666l79.24394666666666 0-34.66922666666667 95.09774222222221C431.9800888888889 707.0401422222222 429.90933333333334 714.9784177777777 428.2652444444444 722.4866133333333zM574.5595733333334 823.5542755555555L273.21002666666664 823.5542755555555c-32.16725333333333 0-58.24398222222223-26.075591111111112-58.24398222222223-58.241706666666666l0-286.5743644444445c0-32.16611555555556 26.07672888888889-58.241706666666666 58.24398222222223-58.241706666666666l301.34954666666664 0c32.16725333333333 0 58.24398222222223 26.075591111111112 58.24398222222223 58.241706666666666L632.8035555555556 765.3125688888889C632.8035555555556 797.4786844444444 606.7268266666666 823.5542755555555 574.5595733333334 823.5542755555555zM500.07950222222223 496.0039822222222l-19.80984888888889 60.06101333333333-104.00995555555556 0-19.810986666666665-60.06101333333333-66.86378666666667 0 101.53301333333334 275.28192 74.29233777777777 0 102.77205333333333-275.28192L500.07950222222223 496.0039822222222zM492.25728000000004 323.86844444444444c0 32.16611555555556-26.07672888888889 58.241706666666666-58.24398222222223 58.241706666666666L132.66375111111108 382.11015111111124c-32.16725333333333 0-58.24398222222223-26.075591111111112-58.24398222222223-58.241706666666666l0-286.5743644444445c0-32.16611555555556 26.07672888888889-58.241706666666666 58.24398222222223-58.241706666666666l301.34954666666664 0c32.16725333333333 0 58.24398222222223 26.075591111111112 58.24398222222223 58.241706666666666L492.25728000000004 323.86844444444444zM292.7650133333333 36.32696888888893L159.03971555555557 36.32696888888893 159.03971555555557 311.6100266666666l127.53464888888888 0c61.07932444444444-1.6816355555555556 93.27160888888889-23.364266666666666 96.58026666666667-65.06723555555556 0-32.53248-17.76071111111111-54.23559111111111-53.24344888888889-65.06609777777777 37.95854222222223-8.347875555555555 59.43409777777778-29.61976888888889 64.38684444444445-63.81567999999999C394.29802666666666 63.42542222222232 360.44117333333327 36.32696888888893 292.7650133333333 36.32696888888893zM282.86065777777776 153.94816000000003l-61.91104 0 0-73.82584888888888 60.672000000000004 0c30.52885333333333 0 46.21994666666666 12.512142222222222 47.05166222222223 37.53756444444444C326.19747555555557 141.00593777777783 310.91256888888887 153.1073422222222 282.86065777777776 153.94816000000003zM317.53102222222225 235.28106666666667c-0.8328533333333332 20.021475555555554-14.45319111111111 30.030506666666664-40.861013333333325 30.030506666666664l-55.71811555555555 0 0-65.06609777777777 55.71811555555555 0C303.0778311111111 201.06581333333327 316.6981688888889 212.7576177777778 317.53102222222225 235.28106666666667zM889.8366577777778 382.11015111111124L588.4871111111112 382.11015111111124c-32.16725333333333 0-58.24398222222223-26.075591111111112-58.24398222222223-58.241706666666666l0-286.5743644444445c0-32.16611555555556 26.07672888888889-58.241706666666666 58.24398222222223-58.241706666666666l301.34954666666664 0c32.16725333333333 0 58.24398222222223 26.075591111111112 58.24398222222223 58.241706666666666L948.08064 323.86844444444444C948.08064 356.03456000000006 922.0039111111112 382.11015111111124 889.8366577777778 382.11015111111124zM748.4916622222223 31.32074666666665c-84.1978311111111 4.184746666666666-128.3675022222222 51.713137777777774-132.48853333333332 142.64661333333333 4.121031111111111 89.25184 48.289564444444444 136.38997333333333 132.48853333333332 141.39392 59.43409777777778-1.6816355555555556 98.22435555555555-29.61976888888889 116.39125333333332-83.83488l-59.43409777777778-13.76256c-8.262542222222221 28.35000888888889-27.240675555555555 43.36412444444444-56.95715555555556 45.04576-42.09891555555555-2.501973333333333-64.38684444444445-32.12288-66.86378666666667-88.84110222222222 1.644088888888889-57.559039999999996 23.932017777777777-88.02076444444444 66.86378666666667-91.34307555555554 33.83864888888888 0.8203377777777777 53.64849777777778 21.27303111111111 59.43409777777778 61.31256888888889l59.43409777777778-18.76992C853.3139911111111 62.603946666666616 813.6897422222223 31.32074666666665 748.4916622222223 31.32074666666665z"  horiz-adv-x="1024" />

    
    <glyph glyph-name="upload" unicode="&#58905;" d="M791.257 16.789v0c-19.562 0-35.438 16.092-35.438 36s15.876 36 35.438 36h80.975c121.232 0 201.25 136.728 201.25 259.416 0 134.82-115.455 243.324-247.070 246.132l-25.55 0.576-7.584 24.768c-36.572 120.168-115.633 190.62-256.426 190.62-175.593 0-289.205-132.264-289.205-307.62l0.284-0.432 2.87-33.012-32.177-5.616c-78.388-13.68-140.864-95.328-140.864-185.868 0-102.456 78.104-188.964 169.25-188.964h102.379c19.597 0 35.438-16.092 35.438-36s-15.841-36-35.438-36h-102.379c-129.56 0-238.99 119.484-238.99 260.964 0 115.56 71.052 217.584 169.498 249.588 12.297 200.952 155.145 354.96 359.336 354.96 160.496 0 266.738-84.384 316.173-217.62 160.248-17.496 288.426-150.3 288.426-316.476 0-154.584-92.315-326.556-269.502-331.308l-80.691-0.108zM574.22 318.498l113.754-127.44c9.887-10.512 25.905-13.932 35.827-3.42l8.93 6.156c9.887 10.548 9.887 27.576 0 38.088l-131.19 145.944c-0.142 0.216-0.213 0.432-0.39 0.612l-8.966 9.54c-4.926 5.256-11.446 7.884-17.967 7.848-6.52 0.036-13.041-2.592-18.038-7.848l-8.966-9.54c-0.177-0.18-0.177-0.396-0.354-0.612l-127.929-143.712c-9.887-10.512-9.887-27.504 0-38.052l8.93-6.156c9.887-10.512 25.976-7.092 35.863 3.42l110.494 125.172zM574.586-120c19.561 0 35.438 16.128 35.438 36v396c0 19.872-15.876 36-35.438 36s-35.438-16.128-35.438-36v-396c0-19.872 15.876-36 35.438-36z"  horiz-adv-x="1152" />

    
    <glyph glyph-name="exit" unicode="&#58883;" d="M764.835 722.175c29.57-21.029 55.86-44.852 78.861-71.467 22.999-26.615 42.713-55.361 59.141-86.248 16.429-30.888 28.917-63.583 37.459-98.081 8.541-34.501 12.813-69.491 12.813-104.981 0-61.116-11.661-118.447-34.989-172.011-23.329-53.556-54.873-100.213-94.63-139.964-39.761-39.761-86.419-71.302-139.976-94.632-53.553-23.332-110.893-34.993-172.001-34.993-60.461 0-117.47 11.662-171.026 34.993-53.563 23.331-100.379 54.869-140.467 94.632-40.089 39.758-71.631 86.414-94.63 139.964-23.003 53.564-34.501 110.895-34.501 172.017 0 34.824 4.102 68.997 12.318 102.513 8.218 33.515 19.879 65.384 34.99 95.617 15.123 30.225 33.847 58.485 56.191 84.764 22.341 26.29 47.315 49.946 74.916 70.976 14.459 10.516 30.064 14.457 46.821 11.83 16.757-2.632 30.395-10.845 40.909-24.645 10.515-13.804 14.456-29.245 11.83-46.332-2.633-17.087-10.845-30.883-24.646-41.402-41.401-30.225-73.108-67.354-95.122-111.382-22.012-44.030-33.015-91.345-33.015-141.94 0-43.372 8.211-84.285 24.64-122.724 16.429-38.446 38.934-71.956 67.517-100.544 28.588-28.588 62.102-51.261 100.55-68.017 38.44-16.757 79.343-25.133 122.723-25.133 43.367 0 84.276 8.377 122.716 25.133 38.446 16.757 71.959 39.428 100.549 68.017 28.584 28.586 51.253 62.098 68.013 100.544 16.757 38.441 25.133 79.356 25.133 122.724 0 51.252-11.827 99.719-35.483 145.389-23.657 45.668-56.843 83.293-99.556 112.864-14.454 9.856-23.164 23.328-26.121 40.415s0.488 32.857 10.346 47.316c9.861 13.8 23.333 22.182 40.419 25.132 17.078 2.958 32.842-0.488 47.307-10.344v0 0zM511.512 358.442c-17.091 0-31.716 6.076-43.869 18.233-12.157 12.159-18.237 26.784-18.237 43.871v374.57c0 17.087 6.080 31.875 18.237 44.36 12.154 12.486 26.778 18.726 43.869 18.726 17.739 0 32.688-6.241 44.847-18.726 12.155-12.485 18.232-27.272 18.232-44.36v-374.57c0-17.085-6.077-31.709-18.232-43.871-12.159-12.156-27.109-18.233-44.847-18.233v0 0zM511.512 358.442z"  horiz-adv-x="1024" />

    
    <glyph glyph-name="minus" unicode="&#59008;" d="M863.9568858695653 421.53976548913045L160.04217500000004 421.53976548913045c-20.732273743206523 0-37.53976548913044-16.80749174592391-37.53976548913044-37.53976548913044s16.80749174592391-37.53976548913044 37.53976548913044-37.53976548913044l703.9147108695653 0c20.733212873641307 0 37.53976548913044 16.806552615489128 37.53976548913044 37.53976548913044S884.6900987432066 421.53976548913045 863.9568858695653 421.53976548913045z"  horiz-adv-x="1024" />

    
    <glyph glyph-name="stop" unicode="&#59176;" d="M512 854.117c-256.454 0-465.117-208.663-465.117-465.117s208.663-465.117 465.117-465.117 465.117 208.663 465.117 465.117c0 256.454-208.663 465.117-465.117 465.117zM512-17.978c-224.419 0-406.977 182.558-406.977 406.977 0 224.361 182.558 406.977 406.977 406.977 224.361 0 406.977-182.558 406.977-406.977 0-224.419-182.617-406.977-406.977-406.977zM395.721 272.721h232.559v232.559h-232.559v-232.559z"  horiz-adv-x="1024" />

    
    <glyph glyph-name="qiehuan" unicode="&#58921;" d="M838.0433646933334 309.5910673066667c-22.121606257777778 22.369600853333335-57.97257898666666 22.369600853333335-80.10233514666668 0-22.133249137777778-22.363778844444443-22.133249137777778-58.60013397333333 0-80.95809194666666l16.11617166222222-15.51306752-121.73869056 0-51.775036302222226 69.32329130666668L520.7298844444445 202.14409898666656l62.01035434666667-83.02704412444444c10.820958435555555-12.630273137777777 26.654206862222225-19.911774435555554 43.323419306666665-19.911774435555554l148.53494101333337 0-17.12910904888889-17.311903288888892c-22.121606257777778-22.363778844444443-22.121606257777778-58.59082012444444 0-80.95576405333334 22.12975616-22.37542286222222 57.971415040000004-22.37542286222222 80.10233514666668 0l114.64580551111112 115.85317887999999c10.626521315555554 10.734800213333331 16.590040177777777 25.272188017777776 16.590040177777777 40.48952433777777 0 15.20569344-5.962354915555555 29.739588266666665-16.590040177777777 40.48021048888889L838.0433646933334 309.5910673066667zM112.2742226488889 554.88009216l145.00363491555558 0 49.70026325333333-66.54411889777778 79.81591893333334 80.30143032888888-59.93907313777778 80.25602275555555c-10.820958435555555 12.622122097777778-26.650713884444443 19.909445404444448-43.32109027555555 19.909445404444448L112.2742226488889 668.8028694755556c-31.552395946666667 0-57.081893546666656-25.478269155555555-57.081893546666656-56.9619706311111S80.72182670222224 554.88009216 112.2742226488889 554.88009216zM774.0572023466666 554.88009216l-16.11617166222222-15.510738488888888c-22.133249137777778-22.35562894222222-22.133249137777778-58.59082012444444 0-80.95227107555554 22.12975616-22.369600853333335 57.98072888888889-22.369600853333335 80.10233514666668 0l114.17426602666667 111.82238947555555c10.626521315555554 10.740622222222221 16.590040177777777 25.281503004444446 16.590040177777777 40.48370346666667 0 15.213843342222221-5.962354915555555 29.75356017777778-16.590040177777777 40.49767424l-114.64580551111112 115.84386503111112c-22.12975616 22.371929884444445-57.97257898666666 22.371929884444445-80.10233514666668 0-22.121606257777778-22.36145095111111-22.121606257777778-58.59664099555555 0-80.95809194666666l17.123287039999997-17.30258830222222-148.52912014222224 0c-16.669212444444444 0-32.50246087111111-7.287322168888889-43.323419306666665-19.909445404444448L257.27902151111107 213.11990784 112.2742226488889 213.11990784c-31.552395946666667 0-57.081893546666656-25.478269155555555-57.081893546666656-56.9619706311111 0-31.47555271111111 25.5294976-56.95265678222222 57.081893546666656-56.95265678222222L283.53620309333337 99.2052804266666c16.669212444444444 0 32.500131839999995 7.281501297777778 43.32109027555555 19.911774435555554l325.46238122666665 435.76303729777777L774.0572023466666 554.88009216z"  horiz-adv-x="1024" />

    
    <glyph glyph-name="time" unicode="&#59014;" d="M512.5 849.499c-256.259 0-464-207.739-464-464 0-256.258 207.741-463.998 464-463.998 256.261 0 464 207.741 464 463.998 0 256.261-207.739 464-464 464zM740.276 450.789l-228.067-130.59c-0.673-8.142-7.498-14.542-15.832-14.542h-10.137c-3.447-1.198-7.128-1.143-10.461 0h-11.2c-8.781 0-15.899 7.1-15.899 15.862v288.318c0 8.758 7.118 15.862 15.899 15.862h31.798c8.781 0 15.899-7.104 15.899-15.862v-215.814l195.784 112.105c7.638 4.373 17.435 1.725 21.883-5.917l16.109-27.67c4.448-7.64 1.862-17.379-5.776-21.752z"  horiz-adv-x="1024" />

    
    <glyph glyph-name="tipinfo" unicode="&#58961;" d="M512 854.45c-256.875 0-465.117-208.243-465.117-465.117s208.243-465.117 465.117-465.117 465.117 208.243 465.117 465.117c0 256.875-208.243 465.117-465.117 465.117zM471.664 685.297c2.54 5.684 5.935 10.661 10.177 14.902 4.233 4.233 9.266 7.628 15.080 10.177s11.991 3.813 18.53 3.813c6.297 0 12.289-1.274 17.99-3.813 5.684-2.54 10.661-5.944 14.902-10.177 4.233-4.242 7.628-9.21 10.177-14.902 2.54-5.693 3.814-11.692 3.814-17.99 0-6.54-1.274-12.716-3.814-18.53s-5.944-10.967-10.177-15.442c-4.242-4.484-9.209-7.99-14.902-10.54-5.693-2.54-11.692-3.813-17.99-3.813-6.54 0-12.716 1.274-18.53 3.813s-10.847 6.047-15.080 10.54c-4.242 4.474-7.628 9.628-10.177 15.442s-3.814 11.991-3.814 18.53c0 6.307 1.274 12.298 3.814 17.99zM605.572 157.5h-178.782v62.503h53.776v251.451h-54.502v62.503h122.819v-313.955h56.689v-62.503z"  horiz-adv-x="1024" />

    
    <glyph glyph-name="mail" unicode="&#59137;" d="M95.868537 60.810415l323.407037 318.821598 92.723914-74.014788 90.467521 74.548954 317.412504-319.354741C909.129671 60.810415 107.663176 60.810415 95.868537 60.810415zM64.709855 124.779396c0-6.552236 1.237178-12.764734 3.033083-18.734709l308.603875 306.97784-311.636958 245.241715L64.709855 124.779396zM931.334415 707.187538l-419.333903-323.576906-419.333903 323.576906L931.334415 707.187538zM959.290145 657.003529l-310.594208-242.961787 307.560102-307.997054c1.771345 5.969974 3.034106 12.181449 3.034106 18.734709L959.290145 657.003529z"  horiz-adv-x="1024" />

    
    <glyph glyph-name="yufu" unicode="&#58965;" d="M1446.777931794863 864.7422180175781l-1142.8988611815857 0c-43.83631107794648 0-87.04166771268743-35.243312470480625-95.6947572195062-78.6890327026332l-160.23238312452955-804.1063706298899c-8.653089506818771-43.35558388312322 20.16049673290068-78.6890327026332 64.32730775728817-78.6890327026332l1142.8988611815857 0c43.83631107794648 0 87.04166771268743 35.21326702080417 95.6947572195062 78.6890327026332l160.29247402388248 804.1063706298899c8.623044057142316 43.295492983770316-20.190542182577133 78.6890327026332-64.38739865664108 78.6890327026332zM752.7280433298247 647.6638441051975l319.9539936045594 0 0-57.08635438526272-125.68011599660737 0c-2.5538632224985958-20.521042129018124-6.399680781084717-39.75012992194873-10.245498339670837-58.318217821997344l117.32748098655314 0 0-309.1075862713595-57.05630893558627 0 0 255.23609500147728-168.64510903393668 0 0-255.23609500147728-57.08635438526272 0 0 309.1075862713595 107.0819826468823 0c3.8458175585861207 19.229087792930603 6.399680781084717 38.458175585861206 9.01363490293622 58.318217821997344l-134.69375089954357 0 0 57.08635438526272zM653.9686502433203 314.18939720728406c10.906498232552828 22.47399635798764 20.521042129018124 48.763764824884944 28.843631689395906 78.86930540069193l-52.549491484118164 0 0-253.9140952157133c0-38.48822103553766-17.937133456843075-58.37830872135025-53.87149126988214-58.37830872135025l-62.82503527346545 0-12.168407118963897 55.16344560596966c19.229087792930603-2.5538632224985958 37.166221249773685-3.8458175585861207 55.13340015629321-3.8458175585861207 10.245498339670837 0 16.014224677550022 7.060680673966705 16.014224677550022 21.151996572223663l0 239.79273386777993-87.22194041074616 0 0 56.45539994205719 112.88075443443793 0c-23.104950801193176 26.920722910102846-50.02567371129602 55.76435459949875-82.0841685160725 86.56094051786418l44.85785636694592 28.21267724619037c15.383270234344483-15.383270234344483 30.16563147515988-30.13558602548343 42.995038487005765-44.256947373416835 19.229087792930603 21.182042021900116 36.53526680656814 44.91794726629883 53.21049137700015 71.17767028351969l-153.86274779312131 0 0 56.45539994205719 218.64073729555622 0 0-47.47181048879742c-25.628768574015314-46.780765146238984-53.2405368266766-86.56094051786418-82.71512295927806-119.25038976584618 8.983589453259766-11.537452675758361 17.306179013637543-21.782951015429198 24.997814130809783-31.397494911894494l75.6844877349878 0 0-37.22631214912659c-10.245498339670837-49.995628261619565-21.782951015429198-89.14484919003922-35.904312363362614-117.32748098655314l-50.02567371129602 19.229087792930603zM755.9429064452053 78.24248089809032l-33.32040369118756 51.94858249058909c60.241126601290404 19.86004223613614 101.94421075220866 44.85785636694592 124.38816166051983 75.62439683563488 21.151996572223663 32.719494697658476 32.68944924798203 75.02348784210581 34.612358027275086 127.00211578237136l0 113.48166342796702 59.00926316455579 0 0-113.48166342796702c-2.5538632224985958-69.25476150422662-18.598133349725067-124.4182071101963-47.44176503912097-165.46029136823256-28.24272269586682-38.48822103553766-74.39253339890027-67.99285261781556-137.24761412204222-89.14484919003922zM1036.8077709596473 78.24248089809032c-26.289768466897307 33.981403584069554-62.85508072314191 70.54671584031414-110.29684576226288 109.6358458693809l38.458175585861206 37.82722114265567c44.91794726629883-35.243312470480625 83.37612285216002-70.51667039063771 114.142663320849-105.15907386758923l-42.303993144447325-42.303993144447325z"  horiz-adv-x="1568" />

    
    <glyph glyph-name="problem" unicode="&#58901;" d="M837.437 714.385c-86.929 86.956-202.497 134.828-325.438 134.828-122.938 0-238.552-47.893-325.487-134.828-86.931-86.917-134.804-202.503-134.804-325.462 0-122.963 47.871-238.534 134.809-325.463 86.929-86.956 202.544-134.828 325.484-134.828 122.941 0 238.508 47.893 325.442 134.828 86.977 86.912 134.848 202.499 134.848 325.463-0.001 122.959-47.872 238.526-134.854 325.462zM541.306 125.69c-7.686-7.686-18.475-12.155-29.308-12.155-10.831 0-21.624 4.467-29.307 12.155-7.64 7.686-12.086 18.429-12.086 29.263 0 10.858 4.448 21.643 12.086 29.286 7.683 7.682 18.476 12.135 29.307 12.135 10.833 0 21.621-4.453 29.308-12.135 7.598-7.642 12.088-18.429 12.088-29.286 0-10.832-4.493-21.575-12.088-29.263zM593.942 368.69c-35.061-28.564-52.501-61.246-52.501-98.126l-0.363-11.284-0.088-0.083c-1.167-15.867-14.381-28.319-30.563-28.319-16.903 0-30.655 13.709-30.655 30.636 0 0.921 0.086 1.842 0.179 2.763l-0.047 0.069c0 35.825 3.419 61.786 10.296 77.899 6.878 16.064 22.568 35.013 46.928 56.813l24.906 22.208c33.487 30.117 50.207 59.831 50.207 89.161 0 25.171-8.989 45.804-27.011 61.895-18.027 16.076-40.996 24.141-68.777 24.141-71.825 0-108.011-41.175-108.554-123.543 0-0.087 0.046-0.162 0.046-0.227 0-0.117-0.046-0.251-0.046-0.363v-1.232h-0.047c-0.804-17.421-15.188-31.335-32.854-31.335s-32.051 13.911-32.859 31.335h-0.088c0 55.536 15.909 99.382 47.736 131.569 31.73 32.231 75.064 48.301 129.817 48.301 48.319 0 87.427-13.373 117.365-40.119 30.026-26.721 44.995-61.513 44.995-104.328 0-43.853-29.306-89.835-88.011-137.823z"  horiz-adv-x="1024" />

    
    <glyph glyph-name="account" unicode="&#58897;" d="M310.744 98.16c0 27.835-22.643 50.429-50.562 50.429h-134.763c-27.878 0-50.52-22.6-50.52-50.429 0-27.835 22.643-50.435 50.52-50.435h134.763c27.924 0 50.562 22.596 50.562 50.435zM125.409 619.405h134.763c27.93 0 50.572 22.595 50.572 50.435 0 27.878-22.647 50.429-50.572 50.429h-134.763c-27.871 0-50.514-22.552-50.514-50.429-0.001-27.835 22.643-50.435 50.514-50.435zM74.899 383.994c0-27.878 22.643-50.429 50.52-50.429h134.763c27.924 0 50.562 22.552 50.562 50.429 0 27.883-22.643 50.478-50.562 50.478h-134.763c-27.878 0-50.52-22.595-50.52-50.478zM949.106-53.129v874.314c0 27.855-31.25 50.429-69.719 50.429l-652.884 0.006c-27.924 0-50.514-22.579-50.514-50.429v-50.435h84.19c55.851 0 101.089-45.189 101.089-100.908 0-55.714-45.237-100.909-101.089-100.909h-84.19v-84.068h84.19c55.851 0 101.089-45.147 101.089-100.866s-45.237-100.866-101.089-100.866h-84.19v-84.068h84.19c55.851 0 101.089-45.195 101.089-100.913 0-55.714-45.237-100.904-101.089-100.904h-84.19v-50.386c0-27.885 22.595-50.483 50.514-50.483l652.885 0.006c38.468-0.001 69.718 22.599 69.718 50.477zM794.143 453.798v-69.882h-102.294v-74.803h102.295v-60.737h-102.295v-112.581h-92.413v112.581h-105.783v60.737h105.782v74.803h-105.782v69.882h85.148l-103.902 180.487h89.081l83.886-163.633 86.702 163.633h83.85l-107.099-180.487h82.824zM879.386-103.613v0z"  horiz-adv-x="1024" />

    
    <glyph glyph-name="tipinfo-circle" unicode="&#58900;" d="M510.925-76.297c-257.049 0-466.165 209.129-466.165 466.165 0 257.042 209.116 466.165 466.165 466.165 257.050 0 466.165-209.123 466.165-466.165 0-257.035-209.115-466.165-466.165-466.165zM510.925 802.567c-227.561 0-412.699-185.138-412.699-412.699s185.137-412.699 412.699-412.699c227.561 0 412.699 185.137 412.699 412.699 0 227.559-185.138 412.699-412.699 412.699zM515.846 173.084c-14.763 0-26.734 11.976-26.734 26.732v268.177h-46.783c-14.763 0-26.732 11.963-26.732 26.734 0 14.763 11.97 26.732 26.732 26.732h73.518c14.763 0 26.734-11.97 26.734-26.732v-294.912c0-14.756-11.971-26.732-26.734-26.732zM589.363 173.084h-147.036c-14.763 0-26.732 11.976-26.732 26.732 0 14.769 11.97 26.734 26.732 26.734h147.036c14.763 0 26.734-11.964 26.734-26.734 0-14.756-11.971-26.732-26.734-26.732zM505.731 572.382c-23.026 0-41.771 18.738-41.771 41.771s18.744 41.771 41.771 41.771 41.771-18.738 41.771-41.771-18.746-41.771-41.771-41.771zM505.731 625.85c-6.449 0-11.697-5.247-11.697-11.696s5.247-11.696 11.697-11.696c6.448 0 11.696 5.247 11.696 11.696s-5.247 11.696-11.696 11.696z"  horiz-adv-x="1024" />

    
    <glyph glyph-name="heartbeat" unicode="&#59112;" d="M513.4879999999999 692.481C348.01 940.698 17.05400000000003 795.432 17.05400000000003 525.05c0-182.96200000000002 165.26100000000002-313.44100000000003 289.57099999999997-411.742 129.208-102.26899999999999 165.478-124.12399999999998 206.863-165.50900000000001 41.385 41.385 75.95 65.47200000000001 206.863 165.50900000000001 126.077 96.31700000000001 289.57099999999997 230.79500000000002 289.57099999999997 413.695C1009.9219999999999 795.432 678.966 940.698 513.4879999999999 692.481"  horiz-adv-x="1027" />

    
    <glyph glyph-name="help" unicode="&#58938;" d="M511.998 849.952c-254.577 0-460.943-206.377-460.943-460.958 0-254.567 206.365-460.946 460.943-460.946s460.946 206.38 460.946 460.946c0 254.581-206.371 460.958-460.946 460.958zM511.998 19.911c-203.84 0-369.084 165.245-369.084 369.084 0 203.849 165.246 369.094 369.084 369.094 203.843 0 369.089-165.246 369.089-369.094 0-203.84-165.246-369.084-369.089-369.084zM520.003 667.633c-102.995 0-163.083-77.559-180.235-183.664h91.285c12.473 63.97 42.135 95.975 88.948 95.975 45.242-1.572 68.648-17.11 70.221-63.916 1.535-29.663-19.531-60.863-63.201-93.633-46.813-32.773-64.362-99.832-61.217-143.506v-25.748h91.291v18.724c-1.578 32.773 11.261 90.438 47.173 115.417 60.858 42.135 88.948 86.612 84.265 133.426-6.255 84.261-62.431 143.782-168.532 146.928zM465.447 114.677h92.011v91.645h-92.011v-91.645z"  horiz-adv-x="1024" />

    
    <glyph glyph-name="shen" unicode="&#58917;" d="M685.951821 457.779354 540.566616 457.779354l0 46.264697-49.954739 0 0-46.264697L342.140381 457.779354l-45.476751 0-4.477988 0 0-298.026674 49.954739 0 0 47.230698 148.470473 0 0-144.794757 49.954739 0L540.565593 206.983377l145.386228 0 0-47.230698 49.954739 0L735.906559 457.779354l-28.786627 0L685.951821 457.779354zM685.951821 407.824615l0-49.103348L540.566616 358.721267l0 49.103348L685.951821 407.824615zM490.610854 407.824615l0-49.103348L342.140381 358.721267l0 49.103348L490.610854 407.824615zM342.140381 256.938116l0 51.828412 148.470473 0 0-51.828412L342.140381 256.938116zM540.566616 256.938116l0 51.828412 145.386228 0 0-51.828412L540.566616 256.938116zM745.160317 601.714534 735.906559 601.714534 540.566616 601.714534 540.566616 650.549775 490.610854 650.549775 490.610854 601.714534 292.185642 601.714534 287.410895 601.714534 242.230903 601.714534 242.230903 504.04405 292.185642 504.04405 292.185642 551.759795 735.906559 551.759795 735.906559 504.04405 785.862321 504.04405 785.862321 601.714534ZM512 828.086238c-245.26296 0-444.086238-198.823278-444.086238-444.086238s198.823278-444.086238 444.086238-444.086238 444.086238 198.823278 444.086238 444.086238S757.26296 828.086238 512 828.086238zM512-17.932162c-221.98172 0-401.932162 179.951465-401.932162 401.932162S290.01828 785.933185 512 785.933185 913.932162 605.98172 913.932162 384 733.980697-17.932162 512-17.932162z"  horiz-adv-x="1024" />

    
    <glyph glyph-name="org" unicode="&#58910;" d="M892.8 220.79999999999995l0 139.2c0 54.4-44.8 99.2-99.2 99.2L531.2 459.2l0 86.4c56 14.4 97.6 65.6 97.6 126.4 0 72-59.2 129.6-129.6 129.6-72 0-129.6-59.2-129.6-129.6 0-60.8 41.6-112 97.6-126.4l0-86.4L230.4 459.2c-54.4 0-99.2-44.8-99.2-99.2l0-139.2c-56-14.4-97.6-65.6-97.6-126.4 0-72 59.2-129.6 129.6-129.6 72 0 129.6 59.2 129.6 129.6 0 60.8-41.6 112-97.6 126.4l0 139.2c0 19.2 16 35.2 35.2 35.2l236.8 0 0-176c-56-14.4-97.6-65.6-97.6-126.4 0-72 59.2-129.6 129.6-129.6 72 0 129.6 59.2 129.6 129.6 0 60.8-41.6 112-97.6 126.4l0 176 262.4 0c19.2 0 35.2-16 35.2-35.2l0-139.2c-56-14.4-97.6-65.6-97.6-126.4 0-72 59.2-129.6 129.6-129.6 72 0 129.6 59.2 129.6 129.6C990.4 156.79999999999995 948.8 206.39999999999998 892.8 220.79999999999995zM433.6 672c0 36.8 30.4 65.6 65.6 65.6s65.6-30.4 65.6-65.6c0-36.8-30.4-65.6-65.6-65.6S433.6 636.8 433.6 672zM228.8 96c0-36.8-30.4-65.6-65.6-65.6S97.6 59.200000000000045 97.6 96c0 36.8 30.4 65.6 65.6 65.6S228.8 131.20000000000005 228.8 96zM566.4 96c0-36.8-30.4-65.6-65.6-65.6s-65.6 30.4-65.6 65.6c0 36.8 30.4 65.6 65.6 65.6S566.4 131.20000000000005 566.4 96zM860.8 28.799999999999955c-36.8 0-65.6 30.4-65.6 65.6 0 36.8 30.4 65.6 65.6 65.6s65.6-30.4 65.6-65.6C926.4 59.200000000000045 897.6 28.799999999999955 860.8 28.799999999999955z"  horiz-adv-x="1024" />

    
    <glyph glyph-name="baojia" unicode="&#58949;" d="M950.69741159375 801.92376425c-2.1590589374999998 27.192470531249995-23.74964734375 47.67435265625-50.183529468749995 47.499293718749996L586.80847053125 847.6141178749999c-14.704941062499998-0.058352656249999996-28.9430589375-6.65223575-39.09647053125-18.08941159375L413.61694106249996 678.4489410625c95.46541159374998-48.84141159375 161.46258840625-147.04941159375002 161.46258840625-261.59623575 0-162.8630589375-132.05270628124998-294.91576424999994-294.91576424999994-294.91576424999994-6.477176812499999 0-12.545882125 1.5171768124999998-18.90635265625 1.92564734375l192.56470628124998-182.11952946875c20.77364734375-19.6649410625 53.568-17.56423575 73.29129371875 4.66823575l426.61835265625 480.53647053124996c0 0 27.89270628125 36.237176812499996 24.91670628125 73.408C975.6724705312499 537.46823575 950.69741159375 801.92376425 950.69741159375 801.92376425zM811.0588231874999 593.89552946875c-25.850352656250003-29.17647053125-68.9148231875-31.9190589375-96.28235265625-6.06870628125-27.2508231875 25.850352656250003-28.417882125 70.37364734375001-2.56752946875 99.55011787500001s69.03152946875 31.9190589375 96.28235265625 6.06870628125C835.8588231875 667.65364734375 836.96752946875 623.072 811.0588231874999 593.89552946875zM310.569411875 219.8964703125l5.5341178125 20.724705937499998c1.0729415625 4.009411875 5.7035296875 8.97882375 9.995294062500001 10.5035296875l21.9670584375 9.26117625c3.50117625 1.8070584375 10.559999999999999 1.58117625 13.948235625-0.3952940625l18.9741178125-10.89882375c7.1152940625-4.1223525 17.901176250000002-2.6541178125 23.7741178125 3.1058821875l29.477647500000003 29.477647500000003c5.985882187500001 5.985882187500001 7.341176249999998 16.432941562499998 3.1058821875 23.717647499999998L425.769411875 325.5529415625C423.67999999999995 329.2235296875 423.39764749999995 336 425.31764749999996 340.17882375l7.736470312500001 19.8776475c1.2423525 3.9529415625000004 6.0423525 8.527058437500001 10.051764375000001 9.6l23.4352940625 6.3247059375C474.729411875 378.12705843750007 481.110588125 386.4847059375 481.110588125 394.9552940625L481.110588125 436.63058812500003c0 8.470588125-6.381176249999998 16.828235625-14.569411875 19.030588125L441.2423525 462.4376475C437.12 463.5670584375 432.09411781250003 468.14117625 430.4564703125 472.4329415625L423.45411781250004 488.5835296875C421.53411781249997 492.2541178125 421.7035296875 498.9176475 423.7929415625 502.53176437499997l13.552941562500001 23.548235625c4.2352940625 7.341176249999998 2.88 17.788235625000002-3.1058821875 23.7741178125L404.7623525 579.331764375C398.94588218750005 585.148235625 388.15999999999997 586.6164703125 380.988235625 582.4376475L356.2541178125 568.2070584375C352.809411875 566.230588125 345.92 565.77882375 341.6847059375 567.69882375L327.7364703125 573.3458821874999c-3.9529415625000004 1.3552940624999998-8.5835296875 6.211764375-9.6 10.277647499999997L310.569411875 611.6329415625C308.3670584375 619.82117625 300.009411875 626.2023525 291.53882375 626.2023525L249.86352968749998 626.2023525c-8.470588125 0-16.771764375-6.381176249999998-18.9741178125-14.569411875L223.32235250000002 583.5670584375C222.19294156250004 579.5576475 217.61882375000005 574.6447059375 213.38352968750002 573.2329415625l-13.948235625-5.6470584375c-3.6141178125-1.6941178125-10.842352499999999-1.3552940624999998-14.287058437499999 0.62117625L160.35764749999998 582.4376475c-7.171764374999999 4.1223525-17.9576475 2.6541178125-23.717647499999998-3.1623525L107.10588218749996 549.8541178125c-5.985882187500001-5.985882187500001-7.341176249999998-16.3764703125-3.1058821875-23.717647499999998l13.609411875-23.6047059375c2.0894118749999997-3.5576475000000003 2.2588237499999995-10.22117625 0.2258821875-14.230588125L110.77647031250001 472.150588125C109.30823562500001 468.1976475 104.2823525 463.5670584375 100.16000000000003 462.4376475L74.80470593749999 455.66117625C66.61647031249998 453.45882374999997 60.235294062499975 445.10117625000004 60.235294062499975 436.63058812500003l0-41.731764375000004c0-8.470588125 6.381176249999998-16.828235625 14.569411875-19.030588125l23.491764375-6.3247059375c4.009411875-1.0729415625 8.7529415625-5.6470584375 10.164705937499999-9.93882375l7.736470312500001-19.82117625C118.00470593750003 336.0564703125 117.66588218749996 329.2235296875 115.57647031250008 325.5529415625L104 305.449411875c-4.2352940625-7.341176249999998-2.88-17.731764375 3.1058821875-23.717647499999998l29.477647500000003-29.477647500000003c5.8164703125-5.8164703125 16.6023525-7.2847059375 23.717647499999998-3.1623525l18.9741178125 10.9552940625c3.388235625 1.9764703125 10.051764375000001 2.3152940625 14.3435296875 0.2258821875l21.9670584375-9.2047059375c3.9529415625000004-1.3552940624999998 8.5835296875-6.3247059375 9.656470312500002-10.390588125l5.590588125-20.724705937499998c2.2023525-8.188235625 10.5035296875-14.569411875 18.9741178125-14.569411875l41.731764375000004 0C300.009411875 205.3270584375 308.3670584375 211.70823562500004 310.569411875 219.8964703125zM143.9247059375 415.7929415625c0 69.91058812499999 56.865882187500006 126.77647031250001 126.77647031250001 126.77647031250001 69.91058812499999 0 126.77647031250001-56.865882187500006 126.77647031250001-126.77647031250001 0-69.91058812499999-56.865882187500006-126.77647031250001-126.77647031250001-126.77647031250001C200.790588125 289.0164703124999 143.9247059375 345.8823525 143.9247059375 415.7929415625z"  horiz-adv-x="1024" />

    
    <glyph glyph-name="exchange" unicode="&#58974;" d="M983.38 534.014l-290.16 232.042c-10.488 8.35-25.026 10.004-37.053 4.189-12.143-5.814-19.838-18.099-19.838-31.553v-74.421h-151.122c-19.325 0-35.002-15.676-35.002-35.029s15.676-35.029 35.002-35.029h186.124c19.325 0 35.002 15.676 35.002 35.029v36.598l199.065-159.188-199.065-159.189v36.598c0 19.353-15.676 35.029-35.002 35.029h-283.719v74.335c0 13.454-7.696 25.738-19.838 31.553-12.085 5.873-26.565 4.246-37.053-4.189l-290.103-232.042c-8.323-6.67-13.112-16.73-13.112-27.363s4.788-20.692 13.112-27.363l290.103-232.043c6.327-5.045 14.081-7.667 21.89-7.667 5.188 0 10.376 1.14 15.164 3.477 12.143 5.814 19.838 18.099 19.838 31.553v74.421h160.642c19.325 0 35.002 15.676 35.002 35.029s-15.676 35.029-35.002 35.029h-195.645c-19.325 0-35.002-15.676-35.002-35.029v-36.598l-199.009 159.189 199.007 159.188v-36.598c0-9.32 3.705-18.27 10.318-24.854 6.555-6.499 15.448-10.177 24.685-10.177 0.057 0 0.173 0 0.227 0l283.49 0.084v-74.421c0-13.454 7.696-25.738 19.838-31.553 11.97-5.814 26.508-4.189 37.053 4.189l290.161 232.042c8.323 6.67 13.112 16.73 13.112 27.363s-4.788 20.693-13.112 27.364z"  horiz-adv-x="1024" />

    
    <glyph glyph-name="status" unicode="&#59202;" d="M496.478572 235.81261500000005c17.177953 0 31.10591-13.933153 31.10591-31.10591 0-17.180951-13.928956-31.104711-31.10591-31.104711-17.177953 0-31.103912 13.92376-31.103912 31.104711C465.366665 221.88066100000003 479.299619 235.81261500000005 496.478572 235.81261500000005L496.478572 235.81261500000005zM496.478572-64.07626000000005c0 0-78.28852 29.511191-78.28852 71.809113 0 29.929908 29.582743 97.4925 52.384883 145.11761 7.804908-3.906551 16.579759-6.160024 25.903637-6.160024 9.32188 0 18.095731 2.252273 25.89944 6.160024 22.800142-47.62511 52.385882-115.187703 52.385882-145.11761C574.764094-34.565268999999944 496.478572-64.07626000000005 496.478572-64.07626000000005L496.478572-64.07626000000005zM856.484488-63.71590500000002c-20.091978 0-36.429901 16.350314-36.429901 36.441293 0 101.690854-46.414531 195.476467-127.326273 257.310344-15.970372 12.206124-19.0267 35.128183-6.827771 51.096357 12.156958 15.94359 35.07382 19.027699 51.053386 6.835965l0.007195-0.017388c99.119997-75.748443 155.965655-190.637947 155.965655-315.225277C892.92678-47.366390000000024 876.58366-63.71590500000002 856.484488-63.71590500000002L856.484488-63.71590500000002zM496.478572 832.079146c-147.709053 0-267.87658-120.175721-267.87658-267.886773 0-90.214035 46.437116-174.371576 120.913221-223.525849C200.912166 281.03595399999995 100.027365 134.737344 100.027365-27.275611000000026c0-20.090778 16.347317-36.441293 36.440293-36.441293s36.433098 16.350314 36.433098 36.441293c0 178.425627 145.16158 323.594403 323.579013 323.588207 147.712051 0 267.882775 120.167526 267.882775 267.879578C764.361347 711.904425 644.190623 832.079146 496.478572 832.079146zM496.478572 369.19418199999996c-107.519902 0-194.997192 87.480288-194.997192 195.004387 0 107.520901 87.477091 195.00019 194.997192 195.00019 107.528096 0 195.006386-87.480288 195.006386-195.00019C691.484957 456.674471 604.006867 369.19418199999996 496.478572 369.19418199999996z"  horiz-adv-x="1024" />

    
    <glyph glyph-name="qiyong" unicode="&#59042;" d="M513.8923377777778 864.7486577777777c-262.2024533333333 0-475.48544-212.48810666666668-475.48544-475.48544S251.6898844444445-86.22222222222229 513.8923377777778-86.22222222222229s475.48544 212.48810666666668 475.48544 475.48544S776.0898844444445 864.7486577777777 513.8923377777778 864.7486577777777zM418.47239111111105 199.2329244444444L418.47239111111105 579.2984177777778l285.45024000000006-190.0352L418.47239111111105 199.2329244444444z"  horiz-adv-x="1024" />

    
    <glyph glyph-name="password" unicode="&#58935;" d="M825.8096974754344-97.1316873771732L198.19030252456542-97.1316873771732c-44.293986878306875 0-80.32447661375662 36.03390500377929-80.32447661375662 80.32789188208616L117.86582591080884 405.0751700075586c0 44.29569451247164 36.03048973544973 80.32959951625094 80.32447661375662 80.32959951625094l627.6176882842025 0c44.293986878306875 0 80.32789188208616-36.03390500377929 80.32789188208616-80.32959951625094l0-421.8789655026453C906.1375893575207-61.099490007558416 870.1019767195767-97.1316873771732 825.8096974754344-97.1316873771732zM198.19030252456542 431.8499961904762c-14.771493151927437 0-26.776532849584274-12.001624429327283-26.776532849584274-26.776532849584274l0-421.8789655026453c0-14.749292940287225 12.003332063492062-26.776532849584274 26.776532849584274-26.776532849584274l627.6176882842025 0c14.771493151927437 0 26.776532849584274 12.02723990929705 26.776532849584274 26.776532849584274L852.584523658352 405.0751700075586c0 14.773200786092215-12.003332063492062 26.776532849584274-26.776532849584274 26.776532849584274L198.19030252456542 431.851703824641zM774.1593685714286 470.6567041269841l-52.71461904761904 0 0 138.84088190476191c0 123.31848666666664-72.78917333333332 223.62738476190472-162.28921333333332 223.62738476190472L464.81924761904764 833.1249698412697c-89.49667714285715 0-162.31610857142857-100.30889809523808-162.31610857142857-223.62738476190472l0-138.84088190476191-52.71461904761904 0 0 138.84088190476191c0 152.3796914285714 96.47452666666666 276.3436838095238 215.0307276190476 276.3436838095238l94.33628857142855 0c118.55620095238095 0 215.0038314285714-123.96231142857141 215.0038314285714-276.3436838095238L774.1593685714286 470.6567041269841zM517.0652729497353 51.03835555555554c-22.294846428571425 0-40.418175892857136 18.09653839285714-40.418175892857136 40.37247410714286l0 79.4384919642857c-35.95353303571429 14.840642857142857-59.50755803571428 49.41995535714285-59.50755803571428 88.6813901785714 0 53.184879464285714 43.26747857142857 96.42871875 96.42714285714285 96.42871875 53.162816071428566 0 96.40665625-43.24226339285714 96.40665625-96.42871875 0-36.58390982142856-20.365894642857143-69.40131964285715-52.55765446428571-85.76274553571429l0-82.35871160714285C557.4141077711638 69.13489394841258 539.3144175925925 51.03835555555554 517.0652729497353 51.03835555555554zM513.5651059854496 331.24866537698404c-39.54825625 0-71.71952946428571-32.164969642857145-71.71952946428571-71.71637767857142 0-31.443188392857138 20.416324107142852-58.83147857142857 50.798903571428575-68.19414821428572l8.710229464285712-2.7027401785714282 0-97.22299374999999c0-8.639312499999999 7.0491874999999995-15.661708035714284 15.708986607142855-15.661708035714284 8.617249107142857 0 15.638069642857143 7.0223964285714295 15.638069642857143 15.661708035714284l0 98.59721517857142 7.722114285714286 3.1140607142857135c27.24330357142857 11.053654464285714 44.835541071428565 37.11342678571428 44.835541071428565 66.41018214285712C585.2609970568783 299.0821198412697 553.0944515211639 331.24866537698404 513.5651059854496 331.24866537698404z"  horiz-adv-x="1024" />

    
    <glyph glyph-name="success-circle" unicode="&#58995;" d="M511.665-75.354c-256.224 0-464.689 208.447-464.689 464.689s208.464 464.689 464.689 464.689 464.689-208.464 464.689-464.689-208.448-464.689-464.689-464.689zM511.665 797.857c-225.265 0-408.521-183.256-408.521-408.521s183.256-408.521 408.521-408.521 408.521 183.256 408.521 408.521-183.256 408.521-408.521 408.521zM436.186 212.665c-7.405 0-14.494 2.939-19.739 8.168l-139.721 139.721c-10.901 10.901-10.901 28.576 0 39.48 10.901 10.901 28.558 10.901 39.46 0l120-120 253.47 253.489c10.901 10.901 28.558 10.901 39.46 0 10.901-10.884 10.901-28.558 0-39.46l-273.21-273.21c-5.227-5.227-12.316-8.185-19.721-8.185z"  horiz-adv-x="1024" />

    
    <glyph glyph-name="qiyong-cricle" unicode="&#58967;" d="M513.10565-92.47534968750006c-263.38366593750004 0-476.92624406249996 213.5061225-476.92624406249996 476.910894375C36.17844687500002 647.8585443750001 249.72102500000005 861.3838537500001 513.10565 861.3838537500001c263.46425156249995 0 476.971333125-213.525309375 476.971333125-476.949268125C990.0760240625 121.0307728125 776.5699015625-92.47534968750006 513.10565-92.47534968750006L513.10565-92.47534968750006zM513.10565 831.5653509375c-246.9643978125 0-447.110619375-200.18267625-447.110619375-447.1307653125 0-246.98742281250003 200.1452615625-447.13172437500003 447.110619375-447.13172437500003 246.969195 0 447.1528303125 200.1443025 447.1528303125 447.13172437500003C960.25752125 631.3826746875 760.0738859375001 831.5653509375 513.10565 831.5653509375L513.10565 831.5653509375zM701.02592 358.3594640624999c-15.437852812500001-9.1685034375-265.8923653125-154.300824375-284.150705625-164.4871978125-13.4404875-7.4445525-32.8356571875 3.29056875-32.8356571875 20.295999375L384.0395571875 545.6120268750001c0 15.437852812500001 17.0831371875 30.0727303125 32.8356571875 21.0606009375 12.5761134375-7.22869875 262.6785440625-152.00797875 284.150705625-164.4680109375C715.1321965625 393.9964228125 714.8971559375 366.5283262500001 701.02592 358.3594640624999L701.02592 358.3594640624999zM701.02592 358.3594640624999M513.0701543749999-70.84009874999992c-251.41290187500002 0-455.219041875 203.80518-455.219041875 455.219041875 0 251.4340078125 203.80613906249997 455.2391878125 455.219041875 455.2391878125 251.4954065625 0 455.2583746875-203.80518 455.2583746875-455.2391878125C968.3275699999999 132.96508125000003 764.5655609375002-70.84009874999992 513.0701543749999-70.84009874999992L513.0701543749999-70.84009874999992zM513.0701543749999 811.149433125C277.3301459375 811.149433125 86.3380390625 620.10072375 86.3380390625 384.378943125c0-235.70163468750002 190.9911478125-426.77049 426.73115624999997-426.77049 235.74000843750002 0 426.8098228125 191.0688553125 426.8098228125 426.77049C939.8790181249999 620.10072375 748.8101628124999 811.149433125 513.0701543749999 811.149433125L513.0701543749999 811.149433125zM692.423433125 359.45696062499997c-14.6943571875-8.699382187500001-253.807438125-147.21986531250002-271.202364375-156.97740937499995-12.816910312500001-7.0924715625-31.3486659375 3.1744875-31.3486659375 19.397088749999995l0 316.34551781249996c0 14.753836874999998 16.29934875 28.703738437499997 31.3486659375 20.081104687499998 11.988991875-6.87565875 250.70873906250003-145.064206875 271.202364375-156.9764503125C705.824586875 393.488926875 705.6691718750001 367.2929278125 692.423433125 359.45696062499997L692.423433125 359.45696062499997zM692.423433125 359.45696062499997"  horiz-adv-x="1024" />

    
    <glyph glyph-name="plus" unicode="&#58898;" d="M869.3333333333334 416L549.3333333333334 416 549.3333333333334 736c0 17.92-14.08 32-32 32s-32-14.08-32-32l0-320L165.33333333333334 416c-17.92 0-32-14.08-32-32s14.08-32 32-32l320 0 0-320c0-17.92 14.08-32 32-32s32 14.08 32 32L549.3333333333334 352l320 0c17.92 0 32 14.08 32 32S887.2533333333333 416 869.3333333333334 416z"  horiz-adv-x="1024" />

    
    <glyph glyph-name="loading" unicode="&#59115;" d="M512 23.748c-20.912 0-38.802-7.432-53.666-22.21-14.778-14.864-22.21-32.666-22.21-53.666 0-20.912 7.432-38.802 22.21-53.578C473.198-120.568 491.088-128 512-128c20.912 0 38.802 7.432 53.666 22.296 14.778 14.778 22.21 32.666 22.21 53.578 0 21-7.432 38.802-22.21 53.666C550.802 16.316 532.912 23.748 512 23.748zM512 896c-20.912 0-38.802-7.432-53.666-22.296-14.778-14.778-22.21-32.666-22.21-53.578 0-21 7.432-38.802 22.21-53.666 14.864-14.778 32.752-22.21 53.666-22.21 20.912 0 38.802 7.432 53.666 22.21 14.778 14.864 22.21 32.666 22.21 53.666 0 20.912-7.432 38.802-22.21 53.578C550.802 888.568 532.912 896 512 896zM151.748 384c0 20.912-7.432 38.802-22.21 53.666-14.864 14.778-32.666 22.21-53.666 22.21-20.912 0-38.802-7.432-53.578-22.21C7.432 422.802 0 404.912 0 384s7.432-38.802 22.296-53.666c14.778-14.778 32.666-22.21 53.578-22.21 21 0 38.802 7.432 53.666 22.21C144.316 345.198 151.748 363.088 151.748 384zM1001.704 437.666c-14.778 14.778-32.666 22.21-53.578 22.21-21 0-38.802-7.432-53.666-22.21-14.778-14.864-22.21-32.752-22.21-53.666s7.432-38.802 22.21-53.666c14.864-14.778 32.666-22.21 53.666-22.21 20.912 0 38.802 7.432 53.578 22.21C1016.568 345.198 1024 363.088 1024 384S1016.568 422.802 1001.704 437.666zM203.612 151.506c-20.96-0.062-38.802-7.394-53.652-22.242-14.788-14.788-22.182-32.692-22.182-53.59 0-21.02 7.394-38.924 22.182-53.712s32.692-22.182 53.712-22.182c20.898 0 38.802 7.394 53.59 22.182 14.848 14.848 22.182 32.692 22.242 53.652-0.062 20.96-7.454 38.864-22.242 53.652C242.476 144.052 224.572 151.446 203.612 151.506zM820.388 616.494c20.96 0.062 38.802 7.394 53.652 22.242 14.788 14.788 22.182 32.692 22.182 53.59 0 21.02-7.394 38.924-22.182 53.712S841.346 768.22 820.326 768.22c-20.898 0-38.802-7.394-53.59-22.182-14.848-14.848-22.182-32.692-22.242-53.652 0.062-20.96 7.454-38.864 22.242-53.652C781.524 623.948 799.428 616.554 820.388 616.494zM203.674 768.22c-21.02 0-38.924-7.394-53.712-22.182S127.78 713.346 127.78 692.326c0-20.898 7.394-38.802 22.182-53.59 14.848-14.848 32.692-22.182 53.652-22.242 20.96 0.062 38.864 7.454 53.652 22.242 14.788 14.788 22.182 32.692 22.242 53.652-0.062 20.96-7.394 38.802-22.242 53.652C242.476 760.826 224.572 768.22 203.674 768.22zM820.388 151.506c-20.96-0.062-38.864-7.454-53.652-22.242-14.788-14.788-22.182-32.692-22.242-53.652 0.062-20.96 7.394-38.802 22.242-53.652 14.788-14.788 32.692-22.182 53.59-22.182 21.02 0 38.924 7.394 53.712 22.182s22.182 32.692 22.182 53.712c0 20.898-7.394 38.802-22.182 53.59C859.19 144.112 841.346 151.446 820.388 151.506z"  horiz-adv-x="1024" />

    
    <glyph glyph-name="bind" unicode="&#58892;" d="M957.174 548.524l-140.134-140.286c-52.102-52.155-125.945-69.045-192.287-50.98l116.964 116.81c1.736 1.506 3.626 2.654 5.259 4.287l140.133 140.286c38.681 38.758 38.681 101.553 0 140.311-38.682 38.733-101.427 38.733-140.133 0l-140.133-140.311c0 0 0 0 0-0.024l-0.104 0.103-121.2-121.019c-17.452 66.035-0.482 139.316 51.236 191.113l140.133 140.286c77.414 77.467 202.875 77.467 280.266 0 77.39-77.465 77.39-203.106 0.001-280.571zM380.874 180.229l-0.152 0.151c-9.136-9.236-21.817-15.003-35.849-15.003-27.812 0-50.344 22.505-50.344 50.266 0 14.544 6.276 27.558 16.178 36.742l333.059 332.624c9.21 9.848 22.224 16.126 36.793 16.126 27.814 0 50.345-22.505 50.345-50.266 0-13.727-5.562-26.179-14.493-35.263l0.152-0.153-335.686-335.224zM277.026 289.64l-140.133-140.288c-38.681-38.73-38.681-101.554 0-140.283 38.68-38.734 101.425-38.734 140.133 0l140.132 140.283c0.97 1.022 1.634 2.17 2.602 3.19l118.547 118.419c17.707-66.238 0.788-139.777-51.084-191.749l-140.133-140.288c-77.416-77.493-202.877-77.493-280.266 0-77.389 77.489-77.389 203.081 0 280.596l140.133 140.286c51.951 52.001 125.486 68.918 191.674 51.109l-120.613-120.461c-0.33-0.306-0.688-0.51-0.994-0.815z"  horiz-adv-x="1024" />

    
    <glyph glyph-name="start" unicode="&#58987;" d="M512-76.828c-258.798 0-465.836 207.039-465.836 465.836s207.040 465.836 465.836 465.836 465.836-207.039 465.836-465.836-207.040-465.836-465.836-465.836zM512 797.908c-227.742 0-408.901-181.157-408.901-408.901s186.334-408.901 408.901-408.901 408.901 186.334 408.901 408.901c0 227.742-181.157 408.901-408.901 408.901zM631.047 559.814s-5.176 0 0 0c-5.176 5.176-10.352 5.176-15.529 5.176-15.529 0-31.055-15.53-31.055-31.055 0-10.352 5.176-20.703 15.529-25.88 41.408-31.055 72.464-77.64 72.464-134.576 0-87.992-72.464-160.455-160.455-160.455s-160.455 72.464-160.455 160.455c0 56.936 31.055 103.519 72.464 134.576 10.352 5.177 15.529 15.53 15.529 25.88 0 15.529-15.529 31.055-31.055 31.055-5.176 0-10.352 0-15.529-5.176h-5.177c-56.935-41.408-98.343-108.695-98.343-186.334 0-119.047 98.343-222.566 222.566-222.566s222.566 98.343 222.566 222.565c0 77.64-41.408 144.927-103.519 186.334zM512 332.071c15.53 0 31.055 15.529 31.055 31.055v232.919c0 15.53-15.53 31.055-31.055 31.055-15.53-5.176-31.055-15.529-31.055-31.055v-232.919c0-20.703 15.53-31.055 31.055-31.055z"  horiz-adv-x="1024" />

    
    <glyph glyph-name="save" unicode="&#58919;" d="M800.576-43.559999999999945h-577.152c-79.08 0-143.424 64.296-143.424 143.4v568.296c0 79.104 64.344 143.448 143.424 143.448h577.176c79.056-0.024 143.4-64.344 143.4-143.448v-568.296c0-79.104-64.32-143.4-143.424-143.4v0zM223.424 755.592c-48.24 0-87.48-39.216-87.48-87.48v-568.272c0-48.24 39.24-87.504 87.48-87.504h577.176c48.24 0 87.48 39.264 87.48 87.504v568.296c0 48.264-39.24 87.48-87.48 87.48l-577.176-0.024zM788.6 382.65599999999995h-553.2v428.904h553.224v-428.904h-0.024zM291.32 438.624h441.36v316.968h-441.36v-316.968zM594.368 673.2719999999999h55.92v-186.504h-55.92v186.504zM594.368 673.2719999999999z"  horiz-adv-x="1024" />

    
    <glyph glyph-name="warn-circle" unicode="&#59075;" d="M516.925 854.039c-256.878 0-465.117-208.24-465.117-465.117s208.24-465.117 465.117-465.117 465.117 208.24 465.117 465.117-208.24 465.117-465.117 465.117zM804.738 101.104c-37.401-37.401-80.935-66.756-129.397-87.253-50.144-21.208-103.441-31.965-158.414-31.965s-108.272 10.752-158.414 31.965c-48.462 20.497-91.997 49.853-129.397 87.253-37.401 37.401-66.756 80.935-87.253 129.397-21.208 50.144-31.965 103.441-31.965 158.414s10.752 108.272 31.965 158.414c20.497 48.467 49.853 92.001 87.253 129.401 37.401 37.401 80.935 66.756 129.397 87.253 50.144 21.208 103.441 31.965 158.414 31.965s108.272-10.752 158.414-31.965c48.462-20.497 91.997-49.853 129.397-87.253 37.401-37.401 66.756-80.935 87.253-129.397 21.208-50.144 31.965-103.441 31.965-158.414s-10.752-108.272-31.965-158.414c-20.497-48.467-49.853-92.001-87.253-129.401zM482.098 192.57c0-19.454 15.772-35.225 35.225-35.225s35.225 15.772 35.225 35.225c0 19.453-15.772 35.225-35.225 35.225-19.453 0-35.225-15.772-35.225-35.225zM517.974 282.164c16.708 0 30.252 13.544 30.252 30.252 0 0 0 0 0 0v268.974c0 16.708-13.544 30.252-30.252 30.252s-30.252-13.544-30.252-30.252v-268.974c0-16.707 13.544-30.252 30.252-30.252 0 0 0 0 0 0z"  horiz-adv-x="1031" />

    
    <glyph glyph-name="zhcx" unicode="&#59848;" d="M921.1142858398437-66L593.8142855468749-66c-22.9071427734375 0-40.907142773437506 18-40.907142773437506 40.907142773437506L552.9071427734375 302.1857144531251c0 22.9071427734375 18 40.907142773437506 40.907142773437506 40.907142773437506l327.2785716796875 0c22.88571416015625 0 40.88571416015625-18 40.88571416015625-40.907142773437506l0-327.25714306640623C962-48 944-66 921.1142858398437-66L921.1142858398437-66M890.0214286132813 456.814285546875l-99 99.814285546875c-23.7214283203125-15.535713867187496-51.5357138671875-25.37142890625-82.62857109375-25.37142890625-80.99999999999999 0-147.2785716796875 66.2785716796875-147.2785716796875 147.2785716796875 0 80.99999999999999 66.2785716796875 147.2785716796875 147.2785716796875 147.2785716796875s147.2785716796875-66.2785716796875 147.2785716796875-147.2785716796875c0-23.7214283203125-5.7428569335937505-46.62857109375-16.37142890625-67.07142861328126l103.0928572265625-103.0928572265625c14.74285693359375-14.7214283203125 14.74285693359375-37.628571093750004 0-52.37142890625C927.62857109375 442.0928572265625 904.7428569335938 442.0928572265625 890.0214286132813 456.814285546875L890.0214286132813 456.814285546875M708.37142890625 752.185714453125c-40.907142773437506 0-73.64999970703124-32.7214283203125-73.64999970703124-73.64999970703124 0-40.907142773437506 32.7214283203125-73.62857109375 73.64999970703124-73.62857109375s73.64999970703124 32.7214283203125 73.64999970703124 73.62857109375C782.0214286132813 719.4428575195312 749.2785716796875 752.185714453125 708.37142890625 752.185714453125L708.37142890625 752.185714453125M430.185714453125-66L102.90714277343744-66C80.00000000000006-66 62-48 62-25.0928572265625L62 302.1857144531251c0 22.9071427734375 18 40.907142773437506 40.907142773437506 40.907142773437506l327.25714306640623 0c22.9071427734375 0 40.907142773437506-18 40.907142773437506-40.907142773437506l0-327.25714306640623C471.09285722656256-48 453.0928572265625-66 430.185714453125-66L430.185714453125-66M430.185714453125 424.90714277343744L102.90714277343744 424.90714277343744C80.00000000000006 424.90714277343744 62 442.9071427734375 62 465.814285546875L62 793.0928572265625C62 816 80.00000000000006 834 102.90714277343744 834l327.25714306640623 0c22.9071427734375 0 40.907142773437506-18 40.907142773437506-40.907142773437506l0-327.25714306640623C471.09285722656256 442.9071427734375 453.0928572265625 424.90714277343744 430.185714453125 424.90714277343744L430.185714453125 424.90714277343744M430.185714453125 424.90714277343744L430.185714453125 424.90714277343744z"  horiz-adv-x="1024" />

    
    <glyph glyph-name="hetongliebiao" unicode="&#59317;" d="M686.336 492.75413333333336c-156.112 0-282.6666666666667-126.55466666666666-282.6666666666667-282.6666666666667s126.55466666666666-282.6666666666667 282.6666666666667-282.6666666666667 282.6666666666667 126.55466666666666 282.6666666666667 282.6666666666667-126.55466666666666 282.6666666666667-282.6666666666667 282.6666666666667z m0-522.6666666666666c-132.54826666666665 0-240 107.45173333333334-240 240s107.45066666666666 240 240 240 240-107.45173333333334 240-240-107.45173333333334-240-240-240zM782.9770666666667 849.0645333333333H154.23360000000002c-51.872 0-94.31146666666666-40.8192-94.31146666666666-90.70826666666667v-725.6693333333334c0-49.89013333333333 42.44053333333333-90.70826666666667 94.31146666666666-90.70826666666667h233.95626666666666v0.013866666666666666c12.887466666666667 0.15039999999999998 23.2896 10.232533333333333 23.2896 22.663466666666665s-10.4032 22.513066666666667-23.2896 22.663466666666665v0.013866666666666666H180.76693333333333c-40.53013333333333 0-73.6896 31.89333333333333-73.6896 70.87466666666666V732.8352c0 38.98133333333333 33.16053333333333 70.87466666666666 73.6896 70.87466666666666h575.6746666666667c40.53013333333333 0 73.6896-31.89333333333333 73.6896-70.87466666666666v-157.8208c0-12.5248 10.555733333333334-22.677333333333333 23.5776-22.677333333333333 13.020800000000001 0 23.5776 10.152533333333334 23.5776 22.677333333333333V758.3562666666667c0.0021333333333333334 49.89013333333333-42.4384 90.70826666666667-94.30933333333334 90.70826666666667zM690.7829333333334 647.4101333333333H216.5898666666667c-16.805333333333333 0-30.554666666666666 11.130666666666666-30.554666666666666 24.733866666666664v3.8656c0 13.6032 13.749333333333334 24.733866666666664 30.554666666666666 24.733866666666664h474.19306666666665c16.805333333333333 0 30.554666666666666-11.130666666666666 30.554666666666666-24.733866666666664v-3.8656c-0.0021333333333333334-13.604266666666666-13.749333333333334-24.733866666666664-30.554666666666666-24.733866666666664zM314.69333333333327 267.77066666666667h-102.2528c-14.522666666666666 0-26.40533333333333 11.882666666666667-26.40533333333333 26.40533333333333 0 14.522666666666666 11.882666666666667 26.40533333333333 26.40533333333333 26.40533333333333h102.2528c14.522666666666666 0 26.40533333333333-11.882666666666667 26.40533333333333-26.40533333333333 0-14.522666666666666-11.882666666666667-26.40533333333333-26.40533333333333-26.40533333333333zM467.0261333333333 457.4592H212.70186666666666c-14.666666666666666 0-26.666666666666668 12-26.666666666666668 26.666666666666668s12 26.666666666666668 26.666666666666668 26.666666666666668h254.32426666666666c14.666666666666666 0 26.666666666666668-12 26.666666666666668-26.666666666666668s-12-26.666666666666668-26.666666666666668-26.666666666666668zM687.5402666666666 393.2416l54.30186666666667-110.02666666666667 121.42079999999999-17.643733333333333-87.86133333333333-85.64373333333333 20.741333333333333-120.9312-108.60266666666666 57.09546666666667-108.60266666666666-57.09546666666667 20.741333333333333 120.9312-87.8624 85.64373333333333 121.42186666666666 17.643733333333333z"  horiz-adv-x="1024" />

    
    </font>
</defs>
</svg>
